<svg xmlns="http://www.w3.org/2000/svg" xmlns:xlink="http://www.w3.org/1999/xlink" version="1.1" x="0px" y="0px" viewBox="50.006 50.007 100 125" enable-background="new 50.006 50.007 100 100" xml:space="preserve"><g><g><g><path fill="#000000" d="M100.984,123.148H65.552V76.865h27.876c0.541,0,0.979,0.438,0.979,0.979c0,0.541-0.439,0.979-0.979,0.979     H67.511v42.365h31.514V77.844c0-0.542,0.438-0.979,0.979-0.979s0.979,0.438,0.979,0.979L100.984,123.148L100.984,123.148z"/></g><g><path fill="#000000" d="M134.454,123.148h-28.775c-0.541,0-0.979-0.439-0.979-0.979s0.438-0.979,0.979-0.979h26.816V92.374     c0-0.542,0.439-0.979,0.979-0.979c0.542,0,0.979,0.438,0.979,0.979V123.148z"/></g><g><path fill="#000000" d="M119.353,78.824h-19.349c-0.541,0-0.979-0.438-0.979-0.979c0-0.542,0.439-0.979,0.979-0.979h19.349     c0.54,0,0.979,0.438,0.979,0.979C120.332,78.385,119.893,78.824,119.353,78.824z"/></g><g><path fill="#000000" d="M127.458,92.947h-9.085V77.844c0-0.542,0.438-0.979,0.979-0.979c0.54,0,0.979,0.438,0.979,0.979v13.143     h7.126c0.541,0,0.979,0.438,0.979,0.98C128.438,92.508,128,92.947,127.458,92.947z"/></g><g><path fill="#000000" d="M133.475,92.948c-0.25,0-0.501-0.095-0.692-0.286l-10.125-10.124c-0.383-0.383-0.383-1.002,0-1.385     c0.383-0.383,1.002-0.383,1.385,0l10.124,10.125c0.383,0.383,0.383,1.002,0,1.385C133.977,92.853,133.726,92.948,133.475,92.948z     "/></g><g><g><path fill="#000000" d="M93.275,95.923H72.362c-0.542,0-0.979-0.439-0.979-0.979s0.438-0.979,0.979-0.979h20.912      c0.541,0,0.979,0.439,0.979,0.979C94.254,95.484,93.816,95.923,93.275,95.923z"/></g><g><path fill="#000000" d="M93.275,89.436H72.362c-0.542,0-0.979-0.438-0.979-0.979s0.438-0.979,0.979-0.979h20.912      c0.541,0,0.979,0.438,0.979,0.979S93.816,89.436,93.275,89.436z"/></g><g><path fill="#000000" d="M87.977,102.41H72.362c-0.542,0-0.979-0.439-0.979-0.979c0-0.541,0.438-0.979,0.979-0.979h15.615      c0.541,0,0.979,0.438,0.979,0.979C88.957,101.971,88.519,102.41,87.977,102.41z"/></g></g></g><g><path fill="#000000" d="M66.532,72.787c-0.541,0-0.979-0.439-0.979-0.979v-7.012c0-0.542,0.439-0.979,0.979-0.979    c0.54,0,0.979,0.438,0.979,0.979v7.012C67.511,72.348,67.073,72.787,66.532,72.787z"/></g><g><path fill="#000000" d="M60.496,78.825h-7.008c-0.542,0-0.979-0.439-0.979-0.979s0.438-0.979,0.979-0.979h7.008    c0.541,0,0.979,0.439,0.979,0.979S61.036,78.825,60.496,78.825z"/></g><g><g><path fill="#000000" d="M60.494,123.148h-7.008c-0.541,0-0.979-0.439-0.979-0.979s0.439-0.979,0.979-0.979h7.008     c0.541,0,0.979,0.439,0.979,0.979C61.474,122.708,61.035,123.148,60.494,123.148z"/></g><g><path fill="#000000" d="M66.532,136.197c-0.541,0-0.979-0.438-0.979-0.979v-7.013c0-0.54,0.439-0.979,0.979-0.979     c0.54,0,0.979,0.439,0.979,0.979v7.013C67.511,135.758,67.073,136.197,66.532,136.197z"/></g></g><g><g><path fill="#000000" d="M133.475,136.197c-0.54,0-0.979-0.438-0.979-0.979v-7.007c0-0.54,0.439-0.979,0.979-0.979     c0.542,0,0.979,0.439,0.979,0.979v7.007C134.454,135.758,134.017,136.197,133.475,136.197z"/></g><g><path fill="#000000" d="M146.527,123.153h-7.015c-0.541,0-0.979-0.44-0.979-0.979c0-0.541,0.438-0.979,0.979-0.979h7.015     c0.542,0,0.979,0.438,0.979,0.979C147.506,122.712,147.069,123.153,146.527,123.153z"/></g></g></g><text x="50.006" y="165.007" fill="#000000" font-size="5px" font-weight="bold" font-family="'Helvetica Neue', Helvetica, Arial-Unicode, Arial, Sans-serif">Created by Bonnie Nguyen</text><text x="50.006" y="170.007" fill="#000000" font-size="5px" font-weight="bold" font-family="'Helvetica Neue', Helvetica, Arial-Unicode, Arial, Sans-serif">from the Noun Project</text></svg>