<?xml version="1.0" encoding="utf-8"?>
<!-- Generator: Adobe Illustrator 19.1.0, SVG Export Plug-In . SVG Version: 6.00 Build 0)  -->
<!DOCTYPE svg PUBLIC "-//W3C//DTD SVG 1.1//EN" "http://www.w3.org/Graphics/SVG/1.1/DTD/svg11.dtd">
<svg version="1.1" id="Layer_1" xmlns="http://www.w3.org/2000/svg" xmlns:xlink="http://www.w3.org/1999/xlink" x="0px" y="0px"
	 viewBox="-270 372.5 57.4 57.5" style="enable-background:new -270 372.5 57.4 57.5;" xml:space="preserve">
<style type="text/css">
	.st0{fill:#444444;}
</style>
<g id="Layer_1_1_">
	<g>
		<g>
			<g>
				<path class="st0" d="M-216.3,415.4c2.4-4.2,3.7-8.9,3.7-14.1c0-4.4-1-8.7-2.7-12.2h-16.2L-216.3,415.4z"/>
			</g>
			<g>
				<path class="st0" d="M-266.3,387.2c-2.4,4.1-3.7,9-3.7,14.1c0,4.5,1,8.5,2.9,12.5h16.1L-266.3,387.2z"/>
			</g>
			<g>
				<path class="st0" d="M-247,386.8h30.5c-4.5-8-12.8-13.3-22.3-14.1L-247,386.8z"/>
			</g>
			<g>
				<path class="st0" d="M-256.7,399.1l15.3-26.6c-9.7,0-18.4,4.9-23.5,12.4L-256.7,399.1z"/>
			</g>
			<g>
				<path class="st0" d="M-225.7,403.7l-15.1,26.2c9.6-0.2,18-5,23.1-12.4L-225.7,403.7z"/>
			</g>
			<g>
				<path class="st0" d="M-235.4,416.1h-30.5c4.6,7.5,12.9,13.2,22.5,13.9L-235.4,416.1z"/>
			</g>
		</g>
	</g>
</g>
<g id="freckles">
</g>
</svg>
