<?xml version="1.0" encoding="utf-8"?>
<!-- Generator: Adobe Illustrator 19.1.0, SVG Export Plug-In . SVG Version: 6.00 Build 0)  -->
<!DOCTYPE svg PUBLIC "-//W3C//DTD SVG 1.1//EN" "http://www.w3.org/Graphics/SVG/1.1/DTD/svg11.dtd">
<svg version="1.1" id="Layer_1" xmlns="http://www.w3.org/2000/svg" xmlns:xlink="http://www.w3.org/1999/xlink" x="0px" y="0px"
	 viewBox="-264 374.9 69.7 53.1" style="enable-background:new -264 374.9 69.7 53.1;" xml:space="preserve">
<style type="text/css">
	.st0{fill:#444444;}
</style>
<g id="Layer_1_1_">
	<g>
		<g>
			<g>
				<g>
					<path class="st0" d="M-228.5,418.4h-26v-33.9h20.5c0.4,0,0.7,0.3,0.7,0.7c0,0.4-0.3,0.7-0.7,0.7h-19V417h23.1v-31.8
						c0-0.4,0.3-0.7,0.7-0.7c0.4,0,0.7,0.3,0.7,0.7V418.4L-228.5,418.4z"/>
				</g>
				<g>
					<path class="st0" d="M-203.9,418.4H-225c-0.4,0-0.7-0.3-0.7-0.7c0-0.4,0.3-0.7,0.7-0.7h19.7v-21.2c0-0.4,0.3-0.7,0.7-0.7
						c0.4,0,0.7,0.3,0.7,0.7V418.4L-203.9,418.4z"/>
				</g>
				<g>
					<path class="st0" d="M-215,385.9h-14.2c-0.4,0-0.7-0.3-0.7-0.7c0-0.4,0.3-0.7,0.7-0.7h14.2c0.4,0,0.7,0.3,0.7,0.7
						C-214.3,385.6-214.6,385.9-215,385.9z"/>
				</g>
				<g>
					<path class="st0" d="M-209,396.3h-6.7v-11.1c0-0.4,0.3-0.7,0.7-0.7s0.7,0.3,0.7,0.7v9.6h5.3c0.4,0,0.7,0.3,0.7,0.7
						S-208.6,396.3-209,396.3z"/>
				</g>
				<g>
					<path class="st0" d="M-204.6,396.3c-0.2,0-0.4-0.1-0.5-0.2l-7.4-7.4c-0.3-0.3-0.3-0.7,0-1c0.3-0.3,0.7-0.3,1,0l7.4,7.4
						c0.3,0.3,0.3,0.7,0,1C-204.3,396.2-204.4,396.3-204.6,396.3z"/>
				</g>
				<g>
					<g>
						<path class="st0" d="M-234.1,398.4h-15.3c-0.4,0-0.7-0.3-0.7-0.7c0-0.4,0.3-0.7,0.7-0.7h15.3c0.4,0,0.7,0.3,0.7,0.7
							C-233.4,398.1-233.7,398.4-234.1,398.4z"/>
					</g>
					<g>
						<path class="st0" d="M-234.1,393.7h-15.3c-0.4,0-0.7-0.3-0.7-0.7s0.3-0.7,0.7-0.7h15.3c0.4,0,0.7,0.3,0.7,0.7
							C-233.4,393.4-233.7,393.7-234.1,393.7z"/>
					</g>
					<g>
						<path class="st0" d="M-238,403.2h-11.4c-0.4,0-0.7-0.3-0.7-0.7s0.3-0.7,0.7-0.7h11.4c0.4,0,0.7,0.3,0.7,0.7
							C-237.3,402.9-237.6,403.2-238,403.2z"/>
					</g>
				</g>
			</g>
			<g>
				<path class="st0" d="M-253.7,381.5c-0.4,0-0.7-0.3-0.7-0.7v-5.2c0-0.4,0.3-0.7,0.7-0.7c0.4,0,0.7,0.3,0.7,0.7v5.1
					C-253,381.2-253.3,381.5-253.7,381.5z"/>
			</g>
			<g>
				<path class="st0" d="M-258.1,385.9h-5.2c-0.4,0-0.7-0.3-0.7-0.7c0-0.4,0.3-0.7,0.7-0.7h5.1c0.4,0,0.7,0.3,0.7,0.7
					C-257.5,385.6-257.7,385.9-258.1,385.9z"/>
			</g>
			<g>
				<g>
					<path class="st0" d="M-258.1,418.4h-5.2c-0.4,0-0.7-0.3-0.7-0.7c0-0.4,0.3-0.7,0.7-0.7h5.1c0.4,0,0.7,0.3,0.7,0.7
						C-257.4,418.1-257.7,418.4-258.1,418.4z"/>
				</g>
				<g>
					<path class="st0" d="M-253.7,428c-0.4,0-0.7-0.3-0.7-0.7v-5.1c0-0.4,0.3-0.7,0.7-0.7c0.4,0,0.7,0.3,0.7,0.7v5.1
						C-253,427.7-253.3,428-253.7,428z"/>
				</g>
			</g>
			<g>
				<g>
					<path class="st0" d="M-204.6,428c-0.4,0-0.7-0.3-0.7-0.7v-5.1c0-0.4,0.3-0.7,0.7-0.7c0.4,0,0.7,0.3,0.7,0.7v5.1
						C-203.9,427.7-204.2,428-204.6,428z"/>
				</g>
				<g>
					<path class="st0" d="M-195.1,418.4h-5.1c-0.4,0-0.7-0.3-0.7-0.7c0-0.4,0.3-0.7,0.7-0.7h5.1c0.4,0,0.7,0.3,0.7,0.7
						C-194.3,418.1-194.7,418.4-195.1,418.4z"/>
				</g>
			</g>
		</g>
	</g>
</g>
<g id="freckles">
</g>
</svg>
