<?xml version="1.0" encoding="utf-8"?>
<!-- Generator: Adobe Illustrator 19.1.0, SVG Export Plug-In . SVG Version: 6.00 Build 0)  -->
<!DOCTYPE svg PUBLIC "-//W3C//DTD SVG 1.1//EN" "http://www.w3.org/Graphics/SVG/1.1/DTD/svg11.dtd">
<svg version="1.1" xmlns="http://www.w3.org/2000/svg" xmlns:xlink="http://www.w3.org/1999/xlink" x="0px" y="0px"
	 viewBox="0 0 69.7 53.1" style="enable-background:new 0 0 69.7 53.1;" xml:space="preserve">
<style type="text/css">
	.st0{fill:#3FC1C0;}
	.st1{fill:#7C281F;}
	.st2{fill:#993325;}
	.st3{fill:#E0C7BA;}
	.st4{fill:#BF4032;}
	.st5{fill:#EFD9C5;}
	.st6{fill:#F9E7D2;}
	.st7{fill:#FFFFFF;}
	.st8{fill:none;stroke:#DDC4AF;stroke-width:1.0191;stroke-linecap:round;stroke-miterlimit:10;}
	.st9{fill:#D35046;}
	.st10{fill:#D6817B;}
	.st11{fill:#4D4D4D;}
	.st12{opacity:0.45;}
</style>
<g id="Layer_1">
	<g>
		<g>
			<g>
				<g>
					<path d="M35.5,43.5h-26V9.6H30c0.4,0,0.7,0.3,0.7,0.7c0,0.4-0.3,0.7-0.7,0.7H11v31.1h23.1V10.3c0-0.4,0.3-0.7,0.7-0.7
						c0.4,0,0.7,0.3,0.7,0.7L35.5,43.5L35.5,43.5z"/>
				</g>
				<g>
					<path d="M60.1,43.5H39c-0.4,0-0.7-0.3-0.7-0.7c0-0.4,0.3-0.7,0.7-0.7h19.7V20.9c0-0.4,0.3-0.7,0.7-0.7c0.4,0,0.7,0.3,0.7,0.7
						L60.1,43.5L60.1,43.5z"/>
				</g>
				<g>
					<path d="M49,11H34.8c-0.4,0-0.7-0.3-0.7-0.7c0-0.4,0.3-0.7,0.7-0.7H49c0.4,0,0.7,0.3,0.7,0.7C49.7,10.7,49.4,11,49,11z"/>
				</g>
				<g>
					<path d="M55,21.4h-6.7V10.3c0-0.4,0.3-0.7,0.7-0.7c0.4,0,0.7,0.3,0.7,0.7v9.6H55c0.4,0,0.7,0.3,0.7,0.7
						C55.7,21,55.4,21.4,55,21.4z"/>
				</g>
				<g>
					<path d="M59.4,21.4c-0.2,0-0.4-0.1-0.5-0.2l-7.4-7.4c-0.3-0.3-0.3-0.7,0-1c0.3-0.3,0.7-0.3,1,0l7.4,7.4c0.3,0.3,0.3,0.7,0,1
						C59.7,21.3,59.6,21.4,59.4,21.4z"/>
				</g>
				<g>
					<g>
						<path d="M29.9,23.5H14.6c-0.4,0-0.7-0.3-0.7-0.7c0-0.4,0.3-0.7,0.7-0.7h15.3c0.4,0,0.7,0.3,0.7,0.7
							C30.6,23.2,30.3,23.5,29.9,23.5z"/>
					</g>
					<g>
						<path d="M29.9,18.8H14.6c-0.4,0-0.7-0.3-0.7-0.7c0-0.4,0.3-0.7,0.7-0.7h15.3c0.4,0,0.7,0.3,0.7,0.7
							C30.6,18.5,30.3,18.8,29.9,18.8z"/>
					</g>
					<g>
						<path d="M26,28.3H14.6c-0.4,0-0.7-0.3-0.7-0.7c0-0.4,0.3-0.7,0.7-0.7H26c0.4,0,0.7,0.3,0.7,0.7C26.7,28,26.4,28.3,26,28.3z"/>
					</g>
				</g>
			</g>
			<g>
				<path d="M10.3,6.6c-0.4,0-0.7-0.3-0.7-0.7V0.7C9.6,0.3,9.9,0,10.3,0C10.7,0,11,0.3,11,0.7v5.1C11,6.3,10.7,6.6,10.3,6.6z"/>
			</g>
			<g>
				<path d="M5.9,11H0.7C0.3,11,0,10.7,0,10.3s0.3-0.7,0.7-0.7h5.1c0.4,0,0.7,0.3,0.7,0.7S6.3,11,5.9,11z"/>
			</g>
			<g>
				<g>
					<path d="M5.9,43.5H0.7c-0.4,0-0.7-0.3-0.7-0.7c0-0.4,0.3-0.7,0.7-0.7h5.1c0.4,0,0.7,0.3,0.7,0.7C6.6,43.2,6.3,43.5,5.9,43.5z"
						/>
				</g>
				<g>
					<path d="M10.3,53.1c-0.4,0-0.7-0.3-0.7-0.7v-5.1c0-0.4,0.3-0.7,0.7-0.7c0.4,0,0.7,0.3,0.7,0.7v5.1C11,52.8,10.7,53.1,10.3,53.1
						z"/>
				</g>
			</g>
			<g>
				<g>
					<path d="M59.4,53.1c-0.4,0-0.7-0.3-0.7-0.7v-5.1c0-0.4,0.3-0.7,0.7-0.7c0.4,0,0.7,0.3,0.7,0.7v5.1
						C60.1,52.8,59.8,53.1,59.4,53.1z"/>
				</g>
				<g>
					<path d="M68.9,43.5h-5.1c-0.4,0-0.7-0.3-0.7-0.7c0-0.4,0.3-0.7,0.7-0.7h5.1c0.4,0,0.7,0.3,0.7,0.7
						C69.7,43.2,69.3,43.5,68.9,43.5z"/>
				</g>
			</g>
		</g>
	</g>
</g>
<g id="freckles">
</g>
</svg>
