<?xml version="1.0" encoding="utf-8"?>
<!-- Generator: Adobe Illustrator 19.1.0, SVG Export Plug-In . SVG Version: 6.00 Build 0)  -->
<!DOCTYPE svg PUBLIC "-//W3C//DTD SVG 1.1//EN" "http://www.w3.org/Graphics/SVG/1.1/DTD/svg11.dtd">
<svg version="1.1" xmlns="http://www.w3.org/2000/svg" xmlns:xlink="http://www.w3.org/1999/xlink" x="0px" y="0px"
	 viewBox="0 0 73.3 67.7" style="enable-background:new 0 0 73.3 67.7;" xml:space="preserve">
<style type="text/css">
	.st0{fill:#3FC1C0;}
	.st1{fill:#7C281F;}
	.st2{fill:#993325;}
	.st3{fill:#E0C7BA;}
	.st4{fill:#BF4032;}
	.st5{fill:#EFD9C5;}
	.st6{fill:#F9E7D2;}
	.st7{fill:#FFFFFF;}
	.st8{fill:none;stroke:#DDC4AF;stroke-width:1.0191;stroke-linecap:round;stroke-miterlimit:10;}
	.st9{fill:#D35046;}
	.st10{fill:#D6817B;}
	.st11{fill:#4D4D4D;}
	.st12{opacity:0.45;}
</style>
<g id="Layer_1">
	<g>
		<g>
			<g>
				<path d="M67.8,62.2H5.2c-1,0-1.8-0.8-1.8-1.8V15.8c0-1,0.8-1.8,1.8-1.8h62.6c1,0,1.8,0.8,1.8,1.8v44.6
					C69.6,61.3,68.8,62.2,67.8,62.2z M7,58.5H66V17.6H7V58.5z"/>
			</g>
			<g>
				<path d="M67.8,17.6H5.2c-1,0-1.8-0.8-1.8-1.8V6.2c0-1,0.8-1.8,1.8-1.8h62.6c1,0,1.8,0.8,1.8,1.8v9.5
					C69.6,16.8,68.8,17.6,67.8,17.6z M7,13.9H66V8.1H7V13.9z"/>
			</g>
			<g>
				<circle cx="10.6" cy="11" r="1.3"/>
			</g>
			<g>
				<circle cx="14.4" cy="11" r="1.3"/>
			</g>
			<g>
				<circle cx="18.3" cy="11" r="1.3"/>
			</g>
			<g>
				<g>
					<path d="M27.3,43.9c-0.4,0-0.8-0.2-1.1-0.5l-5-5c-0.6-0.6-0.6-1.6,0-2.3l5-5c0.6-0.6,1.6-0.6,2.3,0c0.6,0.6,0.6,1.6,0,2.3
						l-3.9,3.9l3.9,3.9c0.6,0.6,0.6,1.6,0,2.3C28.1,43.8,27.7,43.9,27.3,43.9z"/>
				</g>
				<g>
					<path d="M45.7,43.9c-0.4,0-0.8-0.2-1.1-0.5c-0.6-0.6-0.6-1.6,0-2.3l3.9-3.9l-3.9-3.9c-0.6-0.6-0.6-1.6,0-2.3
						c0.6-0.6,1.6-0.6,2.3,0l5,5c0.3,0.3,0.5,0.7,0.5,1.1c0,0.4-0.2,0.8-0.5,1.1l-5,5C46.6,43.8,46.2,43.9,45.7,43.9z"/>
				</g>
				<g>
					<path d="M34.2,47.6c-0.1,0-0.3,0-0.4,0c-0.9-0.2-1.4-1.1-1.2-2l4.1-16c0.2-0.9,1.1-1.4,2-1.2c0.9,0.2,1.4,1.1,1.2,2l-4.1,16
						C35.6,47.2,34.9,47.6,34.2,47.6z"/>
				</g>
			</g>
		</g>
	</g>
</g>
<g id="freckles">
</g>
</svg>
