<?xml version="1.0" encoding="utf-8"?>
<!-- Generator: Adobe Illustrator 19.1.0, SVG Export Plug-In . SVG Version: 6.00 Build 0)  -->
<!DOCTYPE svg PUBLIC "-//W3C//DTD SVG 1.1//EN" "http://www.w3.org/Graphics/SVG/1.1/DTD/svg11.dtd">
<svg version="1.1" id="Layer_1" xmlns="http://www.w3.org/2000/svg" xmlns:xlink="http://www.w3.org/1999/xlink" x="0px" y="0px"
	 viewBox="-262 367.3 73.3 67.7" style="enable-background:new -262 367.3 73.3 67.7;" xml:space="preserve">
<style type="text/css">
	.st0{fill:#444444;}
</style>
<g id="Layer_1_1_">
	<g>
		<g>
			<g>
				<path class="st0" d="M-194.2,429.5h-62.6c-1,0-1.8-0.8-1.8-1.8v-44.6c0-1,0.8-1.8,1.8-1.8h62.6c1,0,1.8,0.8,1.8,1.8v44.6
					C-192.4,428.6-193.2,429.5-194.2,429.5z M-255,425.8h59v-40.9h-59V425.8z"/>
			</g>
			<g>
				<path class="st0" d="M-194.2,384.9h-62.6c-1,0-1.8-0.8-1.8-1.8v-9.6c0-1,0.8-1.8,1.8-1.8h62.6c1,0,1.8,0.8,1.8,1.8v9.5
					C-192.4,384.1-193.2,384.9-194.2,384.9z M-255,381.2h59v-5.8h-59V381.2z"/>
			</g>
			<g>
				<circle class="st0" cx="-251.4" cy="378.3" r="1.3"/>
			</g>
			<g>
				<circle class="st0" cx="-247.6" cy="378.3" r="1.3"/>
			</g>
			<g>
				<circle class="st0" cx="-243.7" cy="378.3" r="1.3"/>
			</g>
			<g>
				<g>
					<path class="st0" d="M-234.7,411.2c-0.4,0-0.8-0.2-1.1-0.5l-5-5c-0.6-0.6-0.6-1.6,0-2.3l5-5c0.6-0.6,1.6-0.6,2.3,0
						c0.6,0.6,0.6,1.6,0,2.3l-3.9,3.9l3.9,3.9c0.6,0.6,0.6,1.6,0,2.3C-233.9,411.1-234.3,411.2-234.7,411.2z"/>
				</g>
				<g>
					<path class="st0" d="M-216.3,411.2c-0.4,0-0.8-0.2-1.1-0.5c-0.6-0.6-0.6-1.6,0-2.3l3.9-3.9l-3.9-3.9c-0.6-0.6-0.6-1.6,0-2.3
						c0.6-0.6,1.6-0.6,2.3,0l5,5c0.3,0.3,0.5,0.7,0.5,1.1s-0.2,0.8-0.5,1.1l-5,5C-215.4,411.1-215.8,411.2-216.3,411.2z"/>
				</g>
				<g>
					<path class="st0" d="M-227.8,414.9c-0.1,0-0.3,0-0.4,0c-0.9-0.2-1.4-1.1-1.2-2l4.1-16c0.2-0.9,1.1-1.4,2-1.2
						c0.9,0.2,1.4,1.1,1.2,2l-4.1,16C-226.4,414.5-227.1,414.9-227.8,414.9z"/>
				</g>
			</g>
		</g>
	</g>
</g>
<g id="freckles">
</g>
</svg>
