<?xml version="1.0" encoding="utf-8"?>
<!-- Generator: Adobe Illustrator 19.1.0, SVG Export Plug-In . SVG Version: 6.00 Build 0)  -->
<!DOCTYPE svg PUBLIC "-//W3C//DTD SVG 1.1//EN" "http://www.w3.org/Graphics/SVG/1.1/DTD/svg11.dtd">
<svg version="1.1" id="Layer_1" xmlns="http://www.w3.org/2000/svg" xmlns:xlink="http://www.w3.org/1999/xlink" x="0px" y="0px"
	 viewBox="-147.5 301.5 186 186" style="enable-background:new -147.5 301.5 186 186;" xml:space="preserve">
<style type="text/css">
	.st0{fill:#3FC1C0;}
	.st1{fill:#F2F2F2;}
	.st2{fill:#E6E6E6;}
	.st3{fill:#603813;}
	.st4{fill:#512D10;}
	.st5{fill:#A67C52;}
	.st6{fill:#77563E;}
	.st7{fill:none;stroke:#42210B;stroke-linecap:round;stroke-linejoin:round;stroke-miterlimit:10;}
	.st8{opacity:0.64;fill:#FFFFFF;enable-background:new    ;}
	.st9{opacity:0.46;fill:#EFD9C5;enable-background:new    ;}
</style>
<g id="Layer_1_1_">
	<circle class="st0" cx="-54.5" cy="394.5" r="93"/>
	<path class="st1" d="M-4.1,358.6c0,0,19.3,13.8,22.2,23.6c0,0-7.4-9.8-14.8-11.3c0,0,14.1,18.1,14.1,36.9c0,0-5.9-12.8-9.6-15.1
		c0,0,8.1,15.8,8.1,33.9c0,0-3-11.3-13.3-15.1c0,0,3.7,8.3,4.4,12c0,0-5.2-6-8.9-6c0,0,6.7,20.3,0,41.4c0,0-1.5-15.8-3-21.1
		c0,0,0.7,29.4-7.4,46.7c0,0,3-17.3-0.7-27.8c0,0,0,14.3-2.2,17.3c0,0-2.2-9-3-12s-0.7-3-0.7-3l-3.7,10.5c0,0,0.7-8.3-5.2-12.8
		c0,0-5.9,15.8-3,26.3l-5.2-21.1l-6.1,19c-4.4-7.3-3.3-14.1-3.3-14.1c-2.8,2.8-5.6,12.4-5.6,12.4c-2.2-6.8-2.2-12.4-2.2-12.4
		c0,6.2-5,14.7-5,14.7c2.2-12.4-5-18.6-5-18.6c2.8,2.8,0,12.4,0,12.4c0-7.9-8-11.1-8-11.1c0,6-5.2,21.1-5.2,21.1
		c3-10.5-3-26.3-3-26.3c-5.9,4.5-5.2,12.8-5.2,12.8l-3.7-10.5c0,0,0,0-0.7,3s-3,12-3,12c-2.2-3-2.2-17.3-2.2-17.3
		c-3.7,10.5-0.7,27.8-0.7,27.8c-8.1-17.3-7.4-46.7-7.4-46.7c-1.5,5.3-3,21.1-3,21.1c-6.7-21.1,0-41.4,0-41.4c-3.7,0-8.9,6-8.9,6
		c0.7-3.8,4.4-12,4.4-12c-10.4,3.8-13.3,15.1-13.3,15.1c0-18.1,8.1-33.9,8.1-33.9c-3.7,2.3-9.6,15.1-9.6,15.1
		c0-18.8,14.1-36.9,14.1-36.9c-7.4,1.5-14.8,11.3-14.8,11.3c3-9.8,17-18.8,17-18.8c-7.8,1.1-17.7,5.3-17.7,5.3S-55,338.2-4.1,358.6z
		"/>
	<path class="st2" d="M-53.1,466.8c0,6.2-5,14.7-5,14.7c2.2-12.4-5-18.6-5-18.6c2.8,2.8,0,12.4,0,12.4c0-7.9-8-11.1-8-11.1
		c0,6-5.2,21.1-5.2,21.1c3-10.5-3-26.3-3-26.3c-5.9,4.5-5.2,12.8-5.2,12.8l-3.7-10.5c0,0,0,0-0.7,3s-3,12-3,12
		c-2.2-3-2.2-17.3-2.2-17.3c-3.7,10.5-0.7,27.8-0.7,27.8c-8.1-17.3-7.4-46.7-7.4-46.7c-1.5,5.3-3,21.1-3,21.1
		c-6.7-21.1,0-41.4,0-41.4c-3.7,0-8.9,6-8.9,6c0.7-3.8,4.4-12,4.4-12c-10.4,3.8-13.3,15.1-13.3,15.1c0-18.1,8.1-33.9,8.1-33.9
		c-3.7,2.3-9.6,15.1-9.6,15.1c0-18.8,14.1-36.9,14.1-36.9c-7.4,1.5-14.8,11.3-14.8,11.3c3-9.8,17-18.8,17-18.8
		c-7.8,1.1-17.7,5.3-17.7,5.3s35-15.3,72.3-18.4L-53.1,466.8z"/>
	<path class="st3" d="M-40.2,440.6l4.3,17.3c-2.5-8.7,2.5-21.7,2.5-21.7c4.9,3.7,4.3,10.5,4.3,10.5l3.1-8.7c0,0,0,0,0.6,2.5
		s2.5,9.9,2.5,9.9c1.9-2.5,1.9-14.2,1.9-14.2c3.1,8.7,0.6,22.9,0.6,22.9c6.8-14.2,6.2-38.4,6.2-38.4c1.2,4.3,2.5,17.3,2.5,17.3
		c5.6-17.3,0-34,0-34c3.1,0,7.4,4.9,7.4,4.9C-4.9,405.8-8,399-8,399c8.7,3.1,11.1,12.4,11.1,12.4c0-14.8-6.8-27.8-6.8-27.8
		c3.1,1.9,8,12.4,8,12.4c0-15.5-11.8-30.3-11.8-30.3c6.2,1.2,12.4,9.3,12.4,9.3c-2.5-8-12.4-14.8-12.4-14.8c6.5,0.9,13,3.7,13,3.7
		c-2.8-7.4-6.2-13.6-6.2-13.6c6.5-1.9,8-1.2,8-1.2c-3.7-5.6-5.6-4.1-5.6-4.1c4.6,0,9.3-6.6,9.3-6.6H6.1c4.4-7,4.2-10.9,6.8-18.8
		c0,0-16.7,10.4-26,14.1c-6.1,2.4-13,12.6-13,12.6c-41-10.2-57.8,1.8-57.8,1.8s-6.9-10.3-13-12.7c-9.3-3.7-26-14.4-26-14.4
		c2.6,7.9,2.4,12.3,6.8,18.3h-4.9c0,0,4.6,7,9.3,7c0,0-1.9-1.1-5.6,4.4c0,0,1.5-0.6,8,1.3c0,0-3.4,6.2-6.2,13.6c0,0,6.5-2.8,13-3.7
		c0,0-9.9,6.8-12.4,14.9c0,0,6.2-8,12.4-9.3c0,0-11.8,14.8-11.8,30.3c0,0,4.9-10.5,8-12.4c0,0-6.8,13-6.8,27.8
		c0,0,2.5-9.3,11.1-12.4c0,0-3.1,6.8-3.7,9.9c0,0,4.3-4.9,7.4-4.9c0,0-5.6,16.7,0,34c0,0,1.2-13,2.5-17.3c0,0-0.6,24.1,6.2,38.4
		c0,0-2.5-14.2,0.6-22.9c0,0,0,11.8,1.9,14.2c0,0,1.9-7.4,2.5-9.9s0.6-2.5,0.6-2.5l3.1,8.7c0,0-0.6-6.8,4.3-10.5
		c0,0,4.9,13,2.5,21.7c0,0,4.3-12.4,4.3-17.3c0,0,6.7,2.6,6.7,9.1c0,0,2.3-7.9,0-10.2c0,0,6,5.1,4.2,15.3c0,0,4.2-7,4.2-12.1
		c0,0,0,4.6,1.9,10.2c0,0,2.3-7.9,4.6-10.2c0,0-0.9,5.6,2.8,11.6L-40.2,440.6z"/>
	<path class="st4" d="M-55.6,444.7c0,5.1-3.2,12.1-3.2,12.1c1.9-10.2-4.2-15.3-4.2-15.3c2.3,2.3,0,10.2,0,10.2
		c0-6.5-6.7-9.1-6.7-9.1c0,4.9-4.3,17.3-4.3,17.3c2.5-8.7-2.5-21.7-2.5-21.7c-4.9,3.7-4.3,10.5-4.3,10.5l-3.1-8.7c0,0,0,0-0.6,2.5
		s-2.5,9.9-2.5,9.9c-1.9-2.5-1.9-14.2-1.9-14.2c-3.1,8.7-0.6,22.9-0.6,22.9c-6.8-14.2-6.2-38.4-6.2-38.4c-1.2,4.3-2.5,17.3-2.5,17.3
		c-5.6-17.3,0-34,0-34c-3.1,0-7.4,4.9-7.4,4.9c0.6-3.1,3.7-9.9,3.7-9.9c-8.7,3.1-11.1,12.4-11.1,12.4c0-14.8,6.8-27.8,6.8-27.8
		c-3.1,1.9-8,12.4-8,12.4c0-15.5,11.8-30.3,11.8-30.3c-6.2,1.2-12.4,9.3-12.4,9.3c2.5-8,12.4-14.8,12.4-14.8c-6.5,0.9-13,3.7-13,3.7
		c2.8-7.4,6.2-13.6,6.2-13.6c-6.5-1.9-8-1.2-8-1.2c3.7-5.6,5.6-4.5,5.6-4.5c-4.6,0-9.3-7-9.3-7h4.9c-4.4-6-4.2-10.5-6.8-18.4
		c0,0,16.7,10.6,26,14.3c6.1,2.4,13,12.7,13,12.7s7.9-6.3,28.1-5.9L-55.6,444.7z"/>
	<g>
		<path d="M-40.2,440.6l4.4,17.3c0,0.1,0,0.1-0.1,0.1s-0.1,0-0.1-0.1l0,0l-0.3-1.4c-0.1-0.4-0.1-0.9-0.2-1.4
			c-0.1-0.5-0.1-0.9-0.1-1.4s-0.1-0.9-0.1-1.4c0-0.9,0-1.9,0.1-2.8c0-0.5,0.1-0.9,0.1-1.4c0.1-0.5,0.1-0.9,0.2-1.4
			c0.3-1.8,0.6-3.6,1.1-5.4s1-3.6,1.6-5.3l0,0c0-0.1,0.2-0.2,0.3-0.2h0.1c0.4,0.3,0.8,0.6,1.1,1l0.5,0.6l0.5,0.6
			c0.2,0.2,0.3,0.4,0.4,0.6c0.1,0.2,0.3,0.4,0.4,0.7c0.2,0.4,0.5,0.9,0.6,1.4c0.2,0.5,0.3,1,0.5,1.4c0.1,0.5,0.2,1,0.3,1.5
			c0.2,1,0.2,2,0.2,3l-0.7-0.1l3-8.7c0.1-0.2,0.3-0.3,0.5-0.3c0.1,0,0.2,0.2,0.3,0.3l0,0l3.2,12.4l-0.9-0.2c0.1-0.2,0.3-0.4,0.3-0.7
			c0.1-0.3,0.2-0.5,0.3-0.8c0.2-0.6,0.3-1.1,0.4-1.7c0.2-1.2,0.3-2.4,0.4-3.5c0.2-2.4,0.3-4.8,0.3-7.2l0,0c0-0.3,0.2-0.6,0.6-0.6
			c0.3,0,0.5,0.2,0.5,0.4l0.4,1.4c0.2,0.5,0.2,1,0.4,1.4c0.1,0.5,0.2,1,0.3,1.4c0.1,0.5,0.2,1,0.2,1.5c0.1,1,0.2,1.9,0.3,2.9
			c0,0.5,0.1,1,0.1,1.5s0,1,0,1.5c0,1.9-0.1,3.9-0.2,5.8c-0.1,1.9-0.3,3.9-0.7,5.8l-1.4-0.5l0.9-2.2c0.3-0.7,0.5-1.5,0.8-2.3
			l0.4-1.1l0.3-1.2c0.2-0.8,0.4-1.5,0.6-2.3l0.5-2.4c0.2-0.8,0.3-1.6,0.5-2.4s0.3-1.6,0.4-2.4c0.1-0.8,0.3-1.6,0.3-2.4
			c0.2-1.6,0.4-3.2,0.5-4.8c0.1-0.8,0.1-1.6,0.2-2.4c0.1-0.8-0.1-1.6,0-2.4c0.2-3.2,0-6.5,0-9.7l0,0c0-0.5,0.6-1,1.1-1
			c0.4,0,0.9,0.3,1,0.7c0.4,1.5,0.7,2.9,0.9,4.4s0.5,2.9,0.6,4.4c0.4,2.9,0.7,5.8,1,8.7l-1.8-0.2l0.6-2c0.2-0.7,0.4-1.4,0.5-2.1
			l0.4-2.1c0.1-0.7,0.2-1.4,0.3-2.1c0.1-0.7,0.2-1.4,0.3-2.1l0.2-2.1l0.1-2.1c0-0.7,0-1.4,0-2.1c0-0.7,0-1.4,0-2.1s-0.1-1.4-0.1-2.1
			l-0.2-2.1l-0.3-2.1c-0.2-1.4-0.4-2.8-0.7-4.2c-0.2-0.7-0.3-1.4-0.5-2.1c-0.2-0.7-0.4-1.4-0.6-2v-0.1c-0.1-0.5,0.1-0.9,0.6-1.1
			c0.1,0,0.2,0,0.3,0l0.7,0.1c0.2,0,0.4,0.1,0.7,0.2c0.2,0.1,0.4,0.2,0.6,0.2c0.2,0.1,0.4,0.2,0.6,0.3c0.8,0.4,1.4,0.8,2.1,1.3
			c0.6,0.5,1.2,1,1.8,1.5s1.1,1.1,1.7,1.7l-1.6,0.8c-0.2-0.8-0.4-1.6-0.7-2.4c-0.3-0.8-0.6-1.6-0.9-2.4c-0.6-1.6-1.3-3.2-2-4.8v-0.1
			c-0.2-0.5,0-1,0.5-1.2c0.2-0.1,0.5-0.1,0.7,0c0.7,0.3,1.4,0.5,2.1,0.9l1,0.5c0.3,0.2,0.6,0.4,0.9,0.6c0.3,0.2,0.6,0.4,0.9,0.7
			c0.3,0.2,0.6,0.5,0.9,0.7l0.8,0.8c0.3,0.3,0.5,0.6,0.8,0.8c0.3,0.3,0.5,0.6,0.7,0.9s0.5,0.6,0.7,0.9c0.4,0.6,0.8,1.3,1.2,1.9
			c0.4,0.7,0.7,1.3,1,2c0.1,0.3,0.3,0.7,0.4,1c0.1,0.4,0.3,0.7,0.4,1.1l-1.8,0.2c-0.1-1.2,0-2.4-0.1-3.5L2,405.9l-0.2-1.8
			c-0.1-0.6-0.2-1.2-0.3-1.8l-0.3-1.8c-0.2-1.2-0.5-2.3-0.8-3.5s-0.6-2.3-1-3.4c-0.3-1.1-0.7-2.3-1.1-3.4c-0.4-1.1-0.8-2.2-1.3-3.3
			s-1-2.2-1.5-3.2l-0.1-0.1c-0.2-0.4,0-1,0.4-1.2c0.3-0.2,0.7-0.1,1,0.1s0.6,0.4,0.9,0.7c0.2,0.2,0.5,0.5,0.7,0.7
			c0.4,0.5,0.8,1,1.2,1.5c0.7,1,1.4,2.1,2.1,3.2c1.3,2.2,2.4,4.4,3.5,6.6l-1.8,0.4l-0.1-2c0-0.7-0.1-1.3-0.2-2
			c-0.1-0.7-0.1-1.3-0.3-2l-0.4-2c-0.1-0.7-0.3-1.3-0.5-2c-0.2-0.7-0.4-1.3-0.6-1.9c-0.2-0.6-0.4-1.3-0.7-1.9l-0.7-1.9
			c-0.2-0.6-0.5-1.2-0.8-1.9c-0.3-0.6-0.6-1.2-0.9-1.8c-0.3-0.6-0.6-1.2-0.9-1.8c-0.3-0.6-0.6-1.2-1-1.8c-0.7-1.2-1.4-2.3-2.1-3.5
			c-0.7-1.1-1.5-2.3-2.3-3.3v-0.1c-0.3-0.4-0.2-1,0.2-1.3c0.2-0.2,0.5-0.2,0.8-0.2l1,0.3c0.4,0.1,0.7,0.2,1,0.4
			c0.3,0.1,0.7,0.3,1,0.4c0.3,0.2,0.6,0.3,0.9,0.5c0.6,0.3,1.2,0.7,1.7,1.1c0.6,0.4,1.1,0.8,1.6,1.2c1.1,0.8,2,1.8,3,2.7
			c0.5,0.5,0.9,1,1.4,1.5c0.4,0.5,0.9,1,1.3,1.6l-1.6,0.8l-0.4-1.1c-0.1-0.4-0.3-0.7-0.5-1.1c-0.3-0.7-0.7-1.4-1.1-2.1l-0.7-1
			c-0.2-0.3-0.5-0.6-0.7-1c-0.5-0.6-1-1.2-1.5-1.8c-1.1-1.2-2.2-2.3-3.4-3.4c-0.6-0.5-1.2-1.1-1.8-1.6s-1.3-1-1.9-1.4l0,0
			c-0.4-0.3-0.5-0.9-0.2-1.3c0.2-0.3,0.6-0.4,0.9-0.4c2.3,0.3,4.5,0.9,6.7,1.5c1.1,0.3,2.2,0.7,3.3,1c1.1,0.4,2.1,0.8,3.2,1.2
			l-1.2,1.2c-0.9-2.3-1.8-4.6-2.9-6.8c-1-2.2-2.1-4.5-3.3-6.6l0,0c-0.2-0.5-0.1-1,0.4-1.3c0.1,0,0.1-0.1,0.2-0.1
			c1.3-0.4,2.7-0.7,4.1-1c0.7-0.1,1.4-0.2,2.1-0.3c0.4,0,0.7-0.1,1.1-0.1c0.2,0,0.4,0,0.6,0c0.1,0,0.2,0,0.3,0s0.1,0,0.2,0
			c0.1,0,0.1,0,0.3,0.1l-1.1,1.4c-0.3-0.5-0.7-1-1-1.4c-0.2-0.2-0.4-0.4-0.6-0.6c-0.2-0.2-0.4-0.4-0.6-0.6c-0.1-0.1-0.2-0.2-0.3-0.2
			c-0.1-0.1-0.2-0.2-0.3-0.2c-0.2-0.1-0.4-0.2-0.6-0.3c-0.2-0.1-0.4-0.1-0.5-0.1s-0.1,0-0.2,0.1c0,0-0.1,0.1-0.1,0L2,343.9h0.6
			c0.2,0,0.4-0.1,0.6-0.1c0.2,0,0.4-0.1,0.6-0.2c0.2-0.1,0.4-0.1,0.6-0.2c0.4-0.2,0.8-0.4,1.2-0.6c0.4-0.2,0.7-0.5,1.1-0.7
			c0.7-0.5,1.4-1.1,2.1-1.7c0.3-0.3,0.6-0.6,1-1c0.3-0.3,0.6-0.8,0.9-1.2l0.7,1.3H6.5c-0.5,0-0.9-0.2-0.9-0.8c0-0.2,0-0.3,0.1-0.4
			c1.4-2.4,2.6-4.9,3.4-7.5c0.9-2.6,1.4-5.4,2.2-8.2c0.2-0.7,0.4-1.4,0.6-2.1l0.3-1l0.1-0.3v-0.1l0,0c0.6,2,0.2,0.6,0.3,1l0,0h-0.1
			c0,0-0.1,0-0.1,0.1c0,0.1,0,0.1,0.1,0.2s0.2,0.2,0.3,0.2s0.2,0,0.1,0l-0.2,0.1L12,322l-0.9,0.5l-1.8,1.1c-2.5,1.4-5,2.8-7.5,4.2
			c-2.5,1.4-5,2.7-7.6,4c-1.3,0.6-2.6,1.3-3.9,1.9c-0.7,0.3-1.3,0.6-2,0.9l-1,0.4l-1,0.5c-1.1,0.6-2.2,1.4-3.3,2.3
			c-1,0.9-2.1,1.9-3,2.9c-1.9,2-3.7,4.2-5.3,6.5c-0.2,0.3-0.6,0.5-1,0.4l0,0l-7.2-1.6l-3.6-0.6c-1.2-0.2-2.4-0.4-3.6-0.6l-3.6-0.4
			c-1.2-0.1-2.4-0.3-3.6-0.4l-3.7-0.3c-1.2-0.1-2.4-0.1-3.7-0.1c-1.2,0-2.4-0.1-3.7,0c-1.2,0.1-2.4,0.1-3.7,0.2l-3.6,0.3
			c-1.2,0.2-2.4,0.4-3.6,0.5c-1.2,0.2-2.4,0.5-3.6,0.7c-1.2,0.3-2.3,0.6-3.5,1c-0.6,0.2-1.1,0.4-1.7,0.6l-1.7,0.7
			c-1.1,0.5-2.2,1-3.1,1.6l0,0c-0.4,0.3-1,0.2-1.3-0.2c-1.6-2.3-3.3-4.5-5.2-6.6c-1.9-2-3.9-4-6.3-5.3l-0.7-0.6
			c-0.3-0.2-0.6-0.3-1-0.4c-0.7-0.3-1.3-0.5-2-0.9c-1.3-0.6-2.6-1.2-3.9-1.8c-2.6-1.3-5.1-2.6-7.6-3.9s-5-2.7-7.5-4.1l-3.7-2.1
			l-0.3-0.1l-0.1-0.1l0,0c0,0,0,0,0.1,0s0.3,0.1,0.7-0.1c0.2-0.1,0.4-0.4,0.4-0.5c0-0.2,0-0.3,0-0.4s0-0.1-0.1-0.2v-0.1l0,0v0.1
			l0.1,0.3l0.3,1c0.2,0.7,0.4,1.4,0.6,2.1c0.8,2.8,1.4,5.6,2.2,8.2c0.8,2.7,2,5.2,3.5,7.6c0.3,0.4,0.1,0.9-0.3,1.2
			c-0.1,0.1-0.3,0-0.5,0h-4.9l0.7-1.4c0.3,0.3,0.6,0.7,0.9,1.1c0.3,0.3,0.6,0.7,1,1c0.7,0.6,1.3,1.2,2.1,1.7
			c0.4,0.3,0.7,0.5,1.1,0.7c0.4,0.2,0.8,0.4,1.2,0.6c0.2,0.1,0.4,0.1,0.6,0.2s0.4,0.1,0.6,0.2c0.2,0,0.4,0.1,0.6,0.1h0.6l-0.6,1.6
			c0.1,0.1,0,0,0,0s0,0-0.1,0c0,0-0.1,0-0.2,0s-0.3,0.1-0.5,0.1c-0.2,0.1-0.4,0.2-0.6,0.4c-0.1,0.1-0.2,0.2-0.3,0.2
			c-0.1,0.1-0.2,0.2-0.3,0.3c-0.2,0.2-0.4,0.4-0.6,0.6s-0.4,0.4-0.6,0.7c-0.4,0.4-0.7,0.9-1,1.4l-1.2-1.3c0.2-0.1,0.2-0.1,0.3-0.1
			s0.1,0,0.2-0.1c0.1,0,0.2,0,0.3-0.1c0.2,0,0.4-0.1,0.6-0.1c0.4,0,0.8,0,1.1,0c0.7,0,1.4,0.1,2.1,0.3c1.4,0.2,2.7,0.6,4.1,1
			c0.5,0.1,0.8,0.7,0.6,1.1c0,0.1,0,0.1-0.1,0.2l0,0c-1.2,2.1-2.3,4.3-3.3,6.6c-1,2.2-2,4.5-2.8,6.8l-1.2-1.2
			c1.1-0.5,2.1-0.9,3.2-1.2c1.1-0.4,2.2-0.7,3.3-1.1c2.2-0.7,4.4-1.2,6.7-1.5c0.5-0.1,1,0.3,1.1,0.8c0.1,0.4-0.1,0.7-0.4,0.9l0,0
			c-0.6,0.4-1.3,0.9-1.9,1.4s-1.2,1-1.8,1.6c-1.3,1.2-2.5,2.3-3.5,3.5c-0.5,0.6-1,1.2-1.5,1.8c-0.2,0.3-0.5,0.6-0.7,1l-0.7,1
			c-0.4,0.7-0.8,1.3-1.1,2c-0.2,0.4-0.4,0.7-0.5,1.1l-0.4,1.1l-1.6-0.8c0.4-0.6,0.9-1.1,1.3-1.6s0.9-1,1.4-1.5c0.9-1,1.9-1.9,3-2.7
			c0.5-0.4,1.1-0.8,1.6-1.2c0.6-0.4,1.1-0.8,1.7-1.1c0.3-0.2,0.6-0.3,0.9-0.5c0.3-0.2,0.6-0.3,1-0.4c0.3-0.1,0.6-0.3,1-0.4l1-0.3
			c0.5-0.1,1,0.2,1.1,0.6c0.1,0.3,0,0.6-0.2,0.8v0.1c-0.8,1-1.6,2.2-2.3,3.3c-0.7,1.1-1.4,2.3-2.1,3.5c-0.4,0.6-0.7,1.2-1,1.8
			c-0.3,0.6-0.6,1.2-0.9,1.8s-0.6,1.2-0.9,1.8c-0.3,0.6-0.6,1.2-0.8,1.9l-0.7,1.9c-0.2,0.6-0.4,1.3-0.7,1.9
			c-0.2,0.6-0.4,1.3-0.6,1.9c-0.2,0.7-0.4,1.3-0.5,2l-0.4,2c-0.1,0.7-0.2,1.3-0.3,2c-0.1,0.7-0.2,1.3-0.2,2l-0.1,2l-1.8-0.4
			c1.1-2.3,2.3-4.5,3.5-6.6c0.6-1.1,1.3-2.1,2.1-3.2c0.4-0.5,0.8-1,1.2-1.5c0.2-0.3,0.5-0.5,0.7-0.7c0.2-0.2,0.6-0.5,0.9-0.7
			c0.4-0.3,1-0.2,1.3,0.2c0.2,0.3,0.2,0.7,0.1,1l-0.1,0.1c-0.5,1-1,2.1-1.5,3.2s-0.9,2.2-1.3,3.3s-0.8,2.2-1.1,3.4
			c-0.3,1.1-0.7,2.3-1,3.4c-0.3,1.1-0.5,2.3-0.8,3.5l-0.3,1.8c-0.1,0.6-0.2,1.2-0.3,1.8l-0.2,1.8l-0.1,1.8c-0.1,1.2-0.1,2.4-0.1,3.5
			l-1.8-0.2c0.1-0.4,0.2-0.7,0.4-1.1c0.1-0.4,0.3-0.7,0.4-1c0.3-0.7,0.6-1.4,1-2c0.4-0.7,0.8-1.3,1.2-1.9c0.2-0.3,0.4-0.6,0.7-0.9
			c0.2-0.3,0.5-0.6,0.7-0.9c0.3-0.3,0.5-0.6,0.8-0.8l0.8-0.8c0.3-0.3,0.6-0.5,0.9-0.7s0.6-0.5,0.9-0.7c0.3-0.2,0.6-0.4,0.9-0.6
			l1-0.5c0.7-0.4,1.4-0.6,2.1-0.9c0.5-0.2,1,0,1.2,0.5c0.1,0.2,0.1,0.5,0,0.7v0.1c-0.7,1.6-1.4,3.2-2,4.8c-0.3,0.8-0.6,1.6-0.9,2.4
			c-0.3,0.8-0.5,1.6-0.7,2.4l-1.6-0.8c0.5-0.6,1.1-1.1,1.7-1.7c0.6-0.5,1.2-1,1.8-1.5c0.6-0.5,1.3-0.9,2.1-1.3
			c0.2-0.1,0.4-0.2,0.6-0.3c0.2-0.1,0.4-0.2,0.6-0.2c0.2-0.1,0.4-0.1,0.7-0.2l0.7-0.1c0.5,0,0.9,0.3,0.9,0.8c0,0.1,0,0.2,0,0.3v0.1
			c-0.2,0.6-0.4,1.3-0.6,2c-0.2,0.7-0.3,1.4-0.5,2.1c-0.3,1.4-0.5,2.8-0.7,4.2l-0.3,2.1l-0.2,2.1c-0.1,0.7-0.1,1.4-0.1,2.1
			c0,0.7,0,1.4,0,2.1s0,1.4,0,2.1l0.1,2.1l0.2,2.1c0.1,0.7,0.1,1.4,0.3,2.1c0.1,0.7,0.2,1.4,0.3,2.1l0.4,2.1
			c0.1,0.7,0.3,1.4,0.5,2.1l0.6,2l-1.8,0.2c0.3-2.9,0.6-5.8,1-8.7c0.2-1.5,0.4-2.9,0.6-4.4s0.5-2.9,0.9-4.4c0.1-0.5,0.7-0.8,1.2-0.7
			c0.4,0.1,0.7,0.5,0.7,0.9l0,0c0,3.2,0,6.5,0.2,9.7c0.1,1.6,0.2,3.2,0.4,4.8c0.1,1.6,0.3,3.2,0.5,4.8c0.1,0.8,0.2,1.6,0.4,2.4
			c0.1,0.8,0.3,1.6,0.4,2.4c0.2,0.8,0.3,1.6,0.5,2.4l0.5,2.4c0.2,0.8,0.4,1.5,0.6,2.3l0.3,1.2l0.4,1.1c0.3,0.7,0.5,1.5,0.8,2.2
			l0.9,2.2l-1.8,0.6c-0.3-2-0.5-3.9-0.7-5.8c-0.2-1.9-0.3-3.9-0.3-5.8c0-0.5,0-1,0-1.5s0-1,0.1-1.5c0-1,0.1-2,0.2-2.9
			c0-0.5,0.1-1,0.2-1.5s0.2-1,0.3-1.5c0.1-0.5,0.2-1,0.4-1.5l0.4-1.4c0.1-0.5,0.8-0.8,1.3-0.6c0.4,0.1,0.8,0.5,0.8,0.9l0,0
			c0,2.4,0,4.8,0.2,7.1c0.1,1.2,0.2,2.4,0.4,3.5c0.1,0.6,0.2,1.1,0.3,1.7c0.1,0.3,0.1,0.5,0.2,0.8s0.2,0.4,0.3,0.6l-1.6,0.3
			l3.1-12.4c0.1-0.5,0.6-0.8,1.1-0.7c0.3,0.1,0.5,0.3,0.6,0.6l3.1,8.7l-1.8,0.4c0-0.3,0-0.6,0-0.8c0-0.3,0-0.5,0-0.8
			c0-0.5,0.1-1,0.2-1.6c0.1-0.5,0.2-1,0.3-1.5c0.1-0.5,0.3-1,0.5-1.5s0.4-1,0.7-1.5c0.1-0.2,0.3-0.5,0.4-0.7s0.3-0.5,0.4-0.7
			l0.5-0.6l0.6-0.6c0.4-0.4,0.8-0.7,1.2-1.1c0.4-0.3,0.9-0.3,1.2,0.1c0.1,0.1,0.1,0.2,0.2,0.3v0.1c0.3,0.9,0.6,1.8,0.9,2.7
			c0.3,0.9,0.5,1.8,0.7,2.7c0.4,1.8,0.8,3.6,1.1,5.5c0.1,0.5,0.1,0.9,0.2,1.4s0.1,0.9,0.1,1.4c0.1,0.9,0.1,1.9,0.1,2.8
			c0,0.5,0,0.9-0.1,1.4c0,0.5-0.1,0.9-0.1,1.4c-0.1,0.5-0.1,1-0.2,1.4l-0.3,1.4l-1.5-0.5c1-2.8,1.9-5.6,2.7-8.5
			c0.4-1.4,0.8-2.9,1.1-4.3c0.2-0.7,0.3-1.4,0.4-2.2c0.1-0.7,0.2-1.4,0.2-2.1l0,0c0-0.4,0.3-0.7,0.7-0.6c0.1,0,0.2,0,0.2,0.1
			c0.5,0.2,1,0.5,1.4,0.7c0.4,0.3,0.9,0.6,1.3,0.9s0.8,0.7,1.2,1c0.4,0.4,0.7,0.8,1.1,1.2c0.3,0.4,0.6,0.9,0.9,1.3
			c0.1,0.2,0.2,0.5,0.3,0.7c0.1,0.2,0.2,0.5,0.3,0.7c0.1,0.3,0.2,0.5,0.2,0.8l0.1,0.8c0.1,0.5,0.1,1.1,0.1,1.6l-1.2-0.2
			c0.5-1.6,0.8-3.4,1-5c0-0.4,0.1-0.8,0.1-1.3c0-0.2,0-0.4,0-0.6s0-0.4,0-0.6c0-0.2-0.1-0.4-0.1-0.6l-0.2-0.6l-0.2-0.5l-0.3-0.4
			l-0.1-0.1c-0.2-0.2-0.1-0.6,0.1-0.7c0.2-0.2,0.5-0.1,0.7,0c0.3,0.3,0.5,0.5,0.8,0.8c0.2,0.3,0.5,0.6,0.7,0.8
			c0.4,0.6,0.8,1.2,1.1,1.8c0.2,0.3,0.3,0.6,0.5,1c0.1,0.3,0.3,0.6,0.4,1c0.3,0.7,0.5,1.3,0.6,2c0.1,0.3,0.1,0.7,0.2,1
			s0.1,0.7,0.2,1l0.1,1.1v1.1c0,0.7-0.1,1.4-0.1,2.1c0,0.4-0.1,0.7-0.1,1l-0.2,1l-0.8-0.3c1.1-1.8,2-3.7,2.8-5.7c0.4-1,0.7-2,1-3
			c0.1-0.3,0.1-0.5,0.2-0.8c0.1-0.3,0.1-0.5,0.1-0.8s0.1-0.7,0.1-0.9v-0.9h0.7c0,2,0.2,3.6,0.5,5.2c0.3,1.7,0.7,3.4,1.2,5.1H-53
			c0.6-1.8,1.2-3.6,1.9-5.3c0.4-0.9,0.8-1.7,1.2-2.6c0.2-0.4,0.5-0.8,0.7-1.2c0.3-0.4,0.6-0.8,0.9-1.1c0.1-0.1,0.2-0.1,0.3,0
			c0,0,0.1,0.1,0.1,0.2l0,0c-0.1,1-0.1,2-0.1,3c0.1,1,0.2,2,0.5,3c0.1,0.5,0.3,1,0.4,1.4c0.2,0.5,0.3,1,0.5,1.4
			c0.2,0.5,0.4,0.9,0.6,1.4c0.2,0.5,0.5,0.9,0.7,1.3h-0.2L-40.2,440.6z M-40.2,440.6l-5,15.7c0,0.1-0.1,0.1-0.1,0.1s-0.1,0-0.1-0.1
			c-0.2-0.4-0.5-0.9-0.8-1.3c-0.2-0.5-0.5-0.9-0.7-1.4s-0.4-0.9-0.5-1.4c-0.2-0.5-0.3-1-0.4-1.5c-0.3-1-0.4-2-0.5-3s-0.1-2,0-3.1
			l0.3,0.2c-0.3,0.3-0.6,0.7-0.8,1.1c-0.2,0.4-0.5,0.8-0.7,1.2c-0.4,0.8-0.8,1.7-1.2,2.5c-0.7,1.7-1.3,3.5-1.8,5.3
			c0,0.1-0.2,0.2-0.3,0.2c-0.1,0-0.1-0.1-0.2-0.2c-0.6-1.7-1-3.4-1.3-5.1c-0.3-1.7-0.6-3.4-0.6-5.2c0-0.2,0-0.3,0.2-0.3
			s0.2,0.1,0.2,0.3l0,0l0.1,0.8c0,0.3,0,0.5,0,0.8s0,0.5-0.1,0.8c-0.1,0.3-0.1,0.5-0.1,0.8c-0.2,1.1-0.6,2.1-1,3.1
			c-0.8,2-1.7,4-2.8,5.9c-0.1,0.2-0.4,0.3-0.6,0.2c-0.2-0.1-0.2-0.3-0.2-0.4l0,0l0.1-1c0-0.3,0.1-0.7,0.1-1c0-0.7,0.1-1.3,0.1-2v-1
			l-0.1-1c0-0.3-0.1-0.7-0.2-1c-0.1-0.3-0.1-0.7-0.2-1c-0.2-0.6-0.4-1.3-0.6-1.9c-0.1-0.3-0.3-0.6-0.4-0.9c-0.1-0.3-0.3-0.6-0.5-0.9
			c-0.3-0.6-0.7-1.1-1.1-1.7c-0.2-0.3-0.4-0.5-0.6-0.8c-0.2-0.2-0.5-0.5-0.7-0.7l0.7-0.8c0.2,0.2,0.3,0.4,0.5,0.6
			c0.1,0.2,0.2,0.5,0.3,0.7l0.2,0.7c0,0.2,0.1,0.5,0.1,0.7s0,0.5,0.1,0.7c0,0.2,0,0.5,0,0.7c0,0.5,0,0.9,0,1.4
			c-0.2,1.8-0.5,3.5-1,5.3c-0.1,0.3-0.4,0.5-0.7,0.4c-0.2-0.1-0.4-0.3-0.4-0.5v-0.1c-0.1-0.5,0-0.9-0.1-1.4l-0.1-0.7l-0.2-0.7
			c-0.1-0.2-0.2-0.4-0.3-0.6c-0.1-0.2-0.2-0.4-0.3-0.6c-0.2-0.4-0.5-0.8-0.8-1.2s-0.6-0.7-0.9-1s-0.7-0.6-1.1-0.9s-0.8-0.5-1.2-0.8
			c-0.4-0.2-0.8-0.5-1.2-0.6l0.9-0.6c0,0.8-0.1,1.6-0.2,2.3c-0.1,0.8-0.2,1.5-0.4,2.2c-0.3,1.5-0.7,2.9-1.1,4.4
			c-0.8,2.9-1.7,5.8-2.6,8.6c-0.1,0.4-0.6,0.6-1,0.5c-0.4-0.1-0.6-0.5-0.5-0.9v-0.1l0.3-1.3c0.1-0.4,0.1-0.9,0.2-1.3
			c0.1-0.4,0.1-0.9,0.1-1.3c0-0.4,0.1-0.9,0-1.3c0-0.9,0-1.8-0.1-2.7c0-0.4-0.1-0.9-0.1-1.3c-0.1-0.4-0.1-0.9-0.2-1.3
			c-0.3-1.8-0.7-3.6-1.1-5.3c-0.2-0.9-0.5-1.7-0.8-2.6c-0.3-0.9-0.6-1.7-0.9-2.6l1.4,0.4c-0.3,0.3-0.7,0.5-1,0.9l-0.5,0.5l-0.4,0.5
			c-0.1,0.2-0.3,0.4-0.4,0.6c-0.1,0.2-0.2,0.4-0.3,0.6c-0.2,0.4-0.4,0.8-0.6,1.2s-0.3,0.9-0.4,1.3c-0.1,0.4-0.2,0.9-0.3,1.4
			c-0.1,0.5-0.1,0.9-0.1,1.4c0,0.2,0,0.5,0,0.7s0,0.5,0,0.7l0,0c0,0.5-0.4,1-0.9,1c-0.4,0-0.8-0.2-1-0.6l-3.1-8.7l1.8-0.1l-3,12.4
			v0.1c-0.1,0.5-0.6,0.8-1.1,0.6c-0.2-0.1-0.4-0.2-0.5-0.4c-0.2-0.3-0.4-0.7-0.5-1s-0.3-0.6-0.3-1c-0.2-0.6-0.3-1.2-0.4-1.9
			c-0.2-1.2-0.3-2.4-0.5-3.7c-0.2-2.4-0.3-4.9-0.3-7.3l1.8,0.3l-0.4,1.3c-0.1,0.4-0.2,0.9-0.3,1.3c-0.1,0.4-0.2,0.9-0.3,1.4
			c-0.1,0.5-0.2,0.9-0.2,1.4c-0.1,0.9-0.2,1.9-0.2,2.8c0,0.5,0,0.9-0.1,1.4c0,0.5,0,0.9,0,1.4c0,1.9,0.1,3.8,0.2,5.7
			c0.2,1.9,0.4,3.8,0.7,5.6l0,0c0.1,0.5-0.3,1-0.8,1.1c-0.4,0.1-0.8-0.2-1-0.5l-1-2.3c-0.4-0.8-0.6-1.6-0.9-2.3l-0.4-1.2l-0.3-1.2
			c-0.2-0.8-0.5-1.6-0.7-2.4l-0.6-2.4c-0.2-0.8-0.3-1.6-0.5-2.4c-0.2-0.8-0.3-1.6-0.4-2.4s-0.3-1.6-0.4-2.4
			c-0.2-1.6-0.4-3.3-0.6-4.9c-0.2-1.6-0.3-3.3-0.4-4.9c-0.2-3.3-0.3-6.5-0.2-9.9l1.8,0.3c-0.4,1.3-0.6,2.8-0.8,4.2
			c-0.2,1.4-0.4,2.9-0.6,4.3c-0.4,2.9-0.7,5.8-1,8.7l0,0c0,0.5-0.5,0.9-1,0.8c-0.4,0-0.7-0.3-0.8-0.7l-0.6-2.1
			c-0.2-0.7-0.4-1.4-0.5-2.1l-0.5-2.1c-0.1-0.7-0.2-1.4-0.3-2.2c-0.1-0.7-0.2-1.4-0.3-2.2l-0.2-2.2l-0.1-2.2c0-0.7,0-1.5,0-2.2
			s0-1.5,0.1-2.2c0-0.7,0.1-1.5,0.1-2.2l0.2-2.2l0.3-2.2c0.2-1.4,0.5-2.9,0.8-4.3c0.2-0.7,0.3-1.4,0.5-2.1s0.4-1.4,0.6-2.1l0.9,1.2
			c-0.1,0-0.3,0-0.4,0l-0.4,0.1c-0.1,0-0.3,0.1-0.5,0.2c-0.2,0-0.3,0.1-0.5,0.2c-0.6,0.3-1.2,0.7-1.8,1.1c-0.6,0.4-1.1,0.9-1.7,1.4
			c-0.5,0.5-1.1,1-1.5,1.6l0,0c-0.3,0.4-0.9,0.4-1.3,0.1c-0.3-0.2-0.4-0.6-0.3-0.9c0.2-0.9,0.5-1.8,0.8-2.7c0.3-0.9,0.6-1.7,0.9-2.5
			c0.7-1.7,1.3-3.3,2.1-4.9l1.2,1.3c-0.6,0.3-1.3,0.5-1.9,0.8l-0.9,0.5l-0.8,0.6c-0.3,0.2-0.6,0.4-0.8,0.6c-0.3,0.2-0.5,0.4-0.8,0.7
			l-0.7,0.7c-0.2,0.2-0.5,0.5-0.7,0.8c-0.2,0.3-0.4,0.5-0.6,0.8c-0.2,0.3-0.4,0.5-0.6,0.8c-0.4,0.6-0.7,1.2-1.1,1.8
			c-0.3,0.6-0.6,1.2-0.9,1.9c-0.1,0.3-0.3,0.6-0.4,1c-0.1,0.3-0.2,0.7-0.3,0.9v0.1c-0.1,0.5-0.7,0.8-1.1,0.6
			c-0.4-0.1-0.7-0.5-0.7-0.9c0.1-1.2,0-2.5,0.1-3.7l0.1-1.8l0.2-1.8c0.1-0.6,0.2-1.2,0.3-1.8l0.3-1.8c0.3-1.2,0.5-2.4,0.8-3.6
			c0.3-1.2,0.6-2.4,1-3.5c0.4-1.2,0.7-2.3,1.2-3.5c0.4-1.1,0.9-2.3,1.3-3.4c0.5-1.1,1-2.2,1.5-3.4l1.3,1.2c-0.2,0.2-0.4,0.3-0.6,0.5
			c-0.2,0.2-0.4,0.4-0.6,0.6c-0.4,0.4-0.7,0.9-1.1,1.4c-0.7,1-1.3,2-2,3c-1.2,2.1-2.4,4.3-3.4,6.5l0,0c-0.2,0.5-0.8,0.7-1.2,0.4
			c-0.3-0.2-0.5-0.5-0.5-0.9l0.1-2.1c0-0.7,0.1-1.4,0.2-2.1c0.1-0.7,0.2-1.4,0.3-2.1l0.4-2.1c0.1-0.7,0.4-1.4,0.5-2
			c0.2-0.7,0.4-1.4,0.6-2c0.2-0.7,0.4-1.3,0.7-2l0.8-1.9c0.3-0.7,0.6-1.3,0.8-1.9c0.3-0.6,0.6-1.3,0.9-1.9c0.3-0.6,0.6-1.3,1-1.9
			c0.3-0.6,0.7-1.2,1-1.8c0.7-1.2,1.4-2.4,2.2-3.6c0.8-1.2,1.5-2.3,2.4-3.4l0.9,1.5l-0.9,0.2c-0.3,0.1-0.6,0.2-0.9,0.3
			s-0.6,0.2-0.8,0.4c-0.3,0.1-0.6,0.3-0.8,0.4c-0.5,0.3-1.1,0.6-1.6,1s-1,0.7-1.5,1.1c-1,0.8-1.9,1.7-2.8,2.6
			c-0.5,0.5-0.9,0.9-1.3,1.4s-0.8,1-1.2,1.5l0,0c-0.4,0.6-1,0.6-1.4,0.3c-0.3-0.3-0.4-0.7-0.3-1l0.4-1.2c0.1-0.4,0.3-0.8,0.5-1.2
			c0.3-0.8,0.8-1.5,1.2-2.2l0.7-1.1c0.2-0.4,0.5-0.7,0.8-1c0.5-0.7,1.1-1.3,1.6-1.9c1.1-1.2,2.3-2.4,3.6-3.5
			c0.6-0.6,1.3-1.1,1.9-1.6c0.7-0.5,1.3-1,2-1.5l0.7,1.7c-2.2,0.3-4.3,0.8-6.5,1.5c-1.1,0.3-2.1,0.7-3.2,1c-1,0.4-2.1,0.8-3.1,1.2
			l0,0c-0.5,0.2-1,0-1.2-0.5c-0.1-0.2-0.1-0.5,0-0.7c0.9-2.3,1.8-4.6,2.9-6.9c1-2.3,2.1-4.5,3.4-6.7l0.6,1.3
			c-1.3-0.4-2.6-0.7-3.9-0.9c-0.6-0.1-1.3-0.2-1.9-0.2c-0.3,0-0.6,0-0.9,0c-0.1,0-0.3,0-0.4,0c-0.1,0-0.1,0-0.2,0c0,0,0,0-0.1,0
			c0,0-0.1,0,0,0l-1.2-1.4c0.4-0.5,0.7-1,1.1-1.5c0.2-0.3,0.4-0.5,0.6-0.7c0.2-0.2,0.5-0.5,0.7-0.7c0.1-0.1,0.3-0.2,0.4-0.3
			c0.1-0.1,0.3-0.2,0.4-0.3c0.3-0.2,0.6-0.4,1-0.6c0.4-0.1,0.8-0.3,1.2-0.3c0.2,0,0.5,0,0.7,0.1c0.3,0.1,0.4,0.1,0.8,0.4l0,0
			c0.4,0.3,0.4,0.9,0.1,1.3c-0.2,0.2-0.5,0.4-0.8,0.3l-0.8-0.1c-0.3,0-0.5-0.1-0.8-0.1s-0.5-0.1-0.8-0.2c-0.2-0.1-0.5-0.2-0.7-0.3
			c-0.5-0.2-0.9-0.4-1.4-0.7c-0.4-0.3-0.9-0.5-1.3-0.8c-0.8-0.6-1.6-1.2-2.3-1.9c-0.4-0.3-0.7-0.7-1-1c-0.3-0.4-0.7-0.7-1-1.1
			c-0.3-0.4-0.3-1.1,0.1-1.5c0.2-0.1,0.4-0.4,0.6-0.4l0,0h5.2l-0.8,1.5c-1.5-2.5-2.7-5.1-3.6-7.9c-0.9-2.8-1.5-5.5-2.2-8.2
			c-0.2-0.7-0.4-1.3-0.6-2l-0.3-1l-0.1-0.2v-0.1c0,0,0-0.1,0-0.2s0-0.2,0.1-0.4c0.1-0.2,0.2-0.4,0.5-0.5c0.5-0.2,0.7,0,0.8,0
			s0.1,0.1,0.1,0.1l0,0l0.1,0.1l0.2,0.1l3.7,2.1c2.5,1.4,5,2.7,7.5,4.1c2.5,1.3,5,2.6,7.6,3.9c1.3,0.6,2.6,1.2,3.8,1.8
			c0.6,0.3,1.3,0.6,1.9,0.8c0.3,0.1,0.7,0.3,1,0.4l1,0.5c2.6,1.5,4.8,3.6,6.7,5.7c2,2.1,3.7,4.4,5.4,6.8l-1.3-0.2
			c1.2-0.8,2.3-1.3,3.4-1.8l1.8-0.7c0.6-0.2,1.2-0.4,1.8-0.6c1.2-0.4,2.4-0.7,3.6-1c1.2-0.3,2.4-0.5,3.7-0.8
			c1.2-0.2,2.5-0.4,3.7-0.6l3.7-0.4c1.2-0.1,2.5-0.1,3.7-0.2s2.5,0,3.7,0s2.5,0,3.7,0.1l3.7,0.3c1.2,0.1,2.5,0.2,3.7,0.4l3.7,0.5
			c1.2,0.2,2.4,0.4,3.7,0.6l3.9,0.5l7.3,1.6l-1,0.4c0.8-1.2,1.7-2.3,2.6-3.5c0.9-1.1,1.9-2.2,2.9-3.3c1-1.1,2.1-2.1,3.2-3
			c1.1-0.9,2.3-1.8,3.7-2.6l1-0.5l1-0.4c0.6-0.3,1.3-0.6,1.9-0.8c1.3-0.6,2.6-1.2,3.8-1.8c2.5-1.3,5-2.6,7.5-4s5-2.8,7.4-4.2
			l1.8-1.1l0.9-0.5l0.5-0.3l0.2-0.1c0.1-0.1,0.4-0.2,0.6-0.3c0.2-0.1,0.5-0.1,0.7-0.1c0.1,0,0.2,0,0.3,0s0.1,0,0.1-0.1h0.1l0,0
			c0.1,0.5-0.3-1,0.3,1l0,0v0.1l-0.1,0.3l-0.3,1c-0.2,0.7-0.4,1.3-0.6,2c-0.8,2.7-1.3,5.5-2.2,8.3s-2.1,5.2-3.6,7.7l-0.8-1.6h4.9
			l0,0c0.5,0,0.9,0.7,0.9,1.2c0,0.2-0.1,0.5-0.2,0.7c-0.3,0.4-0.6,0.8-1,1.2c-0.3,0.4-0.7,0.7-1,1.1c-0.7,0.7-1.5,1.3-2.3,1.9
			c-0.4,0.3-0.8,0.6-1.3,0.8c-0.4,0.3-0.9,0.5-1.4,0.7c-0.2,0.1-0.5,0.2-0.7,0.3s-0.5,0.2-0.8,0.2s-0.5,0.1-0.8,0.1l-0.8,0.1
			c-0.5,0-0.9-0.3-1-0.8c0-0.3,0.1-0.5,0.2-0.7l0,0c0.3-0.3,0.4-0.4,0.7-0.5c0.2-0.1,0.5-0.2,0.7-0.2s0.5,0,0.7,0s0.4,0.1,0.6,0.1
			c0.4,0.1,0.7,0.3,1,0.5c0.2,0.1,0.3,0.2,0.4,0.3c0.1,0.1,0.3,0.2,0.4,0.3c0.2,0.2,0.5,0.5,0.7,0.7s0.4,0.5,0.6,0.7
			c0.4,0.5,0.8,1,1.1,1.5l-1.1,1.4c0.1,0,0,0,0,0s0,0-0.1,0H6.4c-0.1,0-0.3,0-0.4,0c-0.3,0-0.6,0-0.9,0.1c-0.6,0.1-1.3,0.2-1.9,0.3
			c-1.3,0.3-2.6,0.6-3.9,1l0.6-1.3c1.2,2.2,2.3,4.5,3.3,6.8s2,4.6,2.9,7c0.2,0.5-0.1,1-0.5,1.2c-0.2,0.1-0.5,0.1-0.7,0l0,0
			c-1-0.4-2.1-0.8-3.1-1.2c-1.1-0.4-2.1-0.7-3.2-1c-2.1-0.6-4.3-1.1-6.5-1.4l0.7-1.7c0.7,0.5,1.4,1,2,1.5s1.3,1.1,1.9,1.6
			c1.2,1.1,2.4,2.3,3.5,3.5c0.5,0.6,1.1,1.3,1.6,1.9c0.3,0.3,0.5,0.7,0.8,1l0.7,1.1c0.4,0.7,0.9,1.5,1.2,2.2
			c0.2,0.4,0.4,0.8,0.5,1.2l0.4,1.2c0.2,0.5-0.1,1-0.5,1.2c-0.4,0.1-0.8,0-1-0.3l0,0c-0.4-0.5-0.8-1-1.2-1.5s-0.9-0.9-1.3-1.4
			c-0.9-0.9-1.8-1.8-2.8-2.6c-0.5-0.4-1-0.8-1.5-1.1c-0.5-0.4-1-0.7-1.6-1c-0.3-0.2-0.5-0.3-0.8-0.4c-0.3-0.1-0.6-0.3-0.8-0.4
			c-0.3-0.1-0.6-0.2-0.9-0.3l-0.9-0.2l0.9-1.5c0.9,1.1,1.7,2.3,2.4,3.4c0.8,1.2,1.5,2.4,2.2,3.6c0.4,0.6,0.7,1.2,1,1.8
			s0.6,1.2,1,1.9c0.3,0.6,0.6,1.2,0.9,1.9c0.3,0.6,0.6,1.3,0.8,1.9l0.8,2c0.2,0.7,0.5,1.3,0.7,2c0.2,0.7,0.4,1.3,0.6,2
			c0.2,0.7,0.4,1.3,0.5,2l0.4,2.1c0.2,0.7,0.2,1.4,0.3,2.1s0.2,1.4,0.2,2.1l0.1,2.1c0,0.5-0.4,0.9-0.9,1c-0.4,0-0.7-0.2-0.9-0.5l0,0
			c-1.1-2.2-2.2-4.4-3.4-6.5c-0.6-1-1.3-2.1-2-3c-0.4-0.5-0.7-0.9-1.1-1.4c-0.2-0.2-0.4-0.4-0.6-0.6c-0.2-0.2-0.4-0.3-0.6-0.5
			l1.3-1.2c0.6,1.1,1.1,2.2,1.5,3.4c0.5,1.1,0.9,2.3,1.3,3.4c0.4,1.1,0.8,2.3,1.2,3.5c0.3,1.2,0.7,2.3,1,3.5
			c0.3,1.2,0.6,2.4,0.8,3.6l0.3,1.8c0.1,0.6,0.2,1.2,0.3,1.8l0.2,1.8l0.1,1.8c0.1,1.2,0.1,2.4,0.1,3.7c0,0.5-0.4,0.9-0.9,1
			c-0.4,0-0.8-0.3-0.9-0.7V412c-0.1-0.3-0.2-0.6-0.3-0.9c-0.1-0.3-0.2-0.6-0.4-1c-0.3-0.6-0.6-1.2-0.9-1.9c-0.3-0.6-0.7-1.2-1.1-1.8
			c-0.2-0.3-0.4-0.6-0.6-0.8c-0.2-0.3-0.4-0.5-0.6-0.8c-0.2-0.3-0.4-0.5-0.7-0.8l-0.7-0.7c-0.2-0.2-0.5-0.4-0.8-0.7
			c-0.3-0.2-0.5-0.4-0.8-0.6l-0.8-0.6l-0.9-0.5c-0.6-0.3-1.2-0.5-1.9-0.8l1.2-1.3c0.7,1.6,1.4,3.3,2.1,4.9c0.3,0.8,0.6,1.7,0.9,2.5
			c0.3,0.9,0.6,1.7,0.8,2.7c0.1,0.5-0.2,1-0.7,1.1c-0.3,0.1-0.7-0.1-0.9-0.3l0,0c-0.5-0.5-1-1.1-1.5-1.6s-1.1-1-1.7-1.4
			c-0.6-0.4-1.2-0.8-1.8-1.1c-0.2-0.1-0.3-0.2-0.5-0.2c-0.2-0.1-0.3-0.1-0.5-0.2l-0.4-0.1c-0.1,0-0.3,0-0.4,0l0.9-1.2
			c0.2,0.7,0.4,1.4,0.6,2.1c0.2,0.7,0.3,1.4,0.5,2.1c0.3,1.4,0.5,2.9,0.8,4.3l0.3,2.2l0.2,2.2c0.1,0.7,0.1,1.5,0.1,2.2
			c0.1,0.7,0,1.5,0.1,2.2c0,0.7,0,1.5,0,2.2l-0.1,2.2l-0.2,2.2c-0.1,0.7-0.2,1.5-0.3,2.2s-0.2,1.4-0.3,2.2l-0.5,2.1
			c-0.1,0.7-0.3,1.4-0.5,2.1l-0.6,2.1c-0.1,0.5-0.6,0.8-1.1,0.6c-0.4-0.1-0.6-0.4-0.7-0.8l0,0c-0.3-2.9-0.6-5.8-1-8.7
			c-0.2-1.4-0.4-2.9-0.6-4.3c-0.2-1.4-0.5-2.9-0.8-4.2l1.9-0.3c0,3.3-0.1,6.6-0.3,9.9c-0.1,1.6-0.2,3.3-0.4,4.9s-0.4,3.3-0.6,4.9
			c-0.1,0.8-0.3,1.6-0.4,2.4c-0.1,0.8-0.3,1.6-0.4,2.4c-0.2,0.8-0.3,1.6-0.5,2.4l-0.6,2.4c-0.2,0.8-0.5,1.6-0.7,2.4l-0.3,1.2
			l-0.4,1.2c-0.3,0.8-0.5,1.6-0.9,2.3l-1,2.3c-0.2,0.4-0.6,0.5-1,0.4c-0.3-0.1-0.5-0.5-0.4-0.8l0,0c0.3-1.9,0.5-3.8,0.7-5.7
			s0.3-3.8,0.3-5.7c0-0.5,0-1,0-1.4c0-0.5,0-1,0-1.4c0-1-0.1-1.9-0.2-2.8c0-0.5-0.1-0.9-0.2-1.4c-0.1-0.5-0.1-0.9-0.3-1.4
			c-0.1-0.5-0.2-0.9-0.3-1.4l-0.4-1.3l1.2-0.2c0,2.4-0.1,4.8-0.4,7.3c-0.1,1.2-0.3,2.4-0.5,3.6c-0.1,0.6-0.2,1.2-0.4,1.8
			c-0.1,0.3-0.2,0.6-0.3,0.9s-0.3,0.6-0.5,0.9c-0.1,0.2-0.4,0.3-0.6,0.2c-0.1-0.1-0.2-0.2-0.2-0.3v-0.1l-3-12.4h0.8l-3.2,8.6
			c-0.1,0.2-0.3,0.3-0.5,0.2c-0.1-0.1-0.3-0.2-0.3-0.4l0,0c0-0.9,0.1-1.9-0.1-2.9c-0.1-0.5-0.1-1-0.2-1.4c-0.1-0.5-0.2-0.9-0.4-1.4
			s-0.4-0.9-0.6-1.3c-0.1-0.2-0.2-0.4-0.4-0.6c-0.1-0.2-0.2-0.4-0.4-0.6L-32,438l-0.5-0.5c-0.3-0.4-0.7-0.6-1.1-1l0.4-0.1
			c-0.6,1.7-1.2,3.5-1.6,5.2c-0.5,1.8-0.9,3.6-1.1,5.4c-0.1,0.5-0.1,0.9-0.2,1.4c-0.1,0.5-0.1,0.9-0.1,1.4c-0.1,0.9-0.1,1.8-0.1,2.7
			c0,0.5,0,0.9,0,1.4s0,0.9,0.1,1.4s0.1,0.9,0.2,1.4l0.3,1.3l-0.3,0L-40.2,440.6z"/>
	</g>
	<path class="st5" d="M-37.5,398.4c-0.9,18-7.4,32.4-19.5,32.4s-17.6-32.5-17.6-32.5s-2.5,0.3-0.6,10.8c0,0-4.3-2.5-4.3-8.7
		c0,0-4.3,6.8-3.1,13c0,0-3.7-6.2-0.6-13.6c0,0-2.5-1.2-6.8,3.1c0,0,0-4.3,7.4-8.7c0,0-4.9-3.1-13.6,0.6c0,0,6.2-8,15.5-8.7
		c9.3-0.7,2.2,0.6,0.9-7.4c0,0-1.2,1.9-1.9,4.9c0,0-4.3-8.7,3.1-12.4c0,0-1.2-1.2-6.2,0c0,0,13.3-6.9,21.3-1.4
		c8,5.6,6.5,23.4,6.5,23.4h2.5c0,0-0.3-18.4,7.7-24s21,1.9,21,1.9c-4.9-1.2-6.2,0-6.2,0c7.4,3.7,3.1,12.4,3.1,12.4
		c-0.6-3.1-1.9-4.9-1.9-4.9c-1.2,8-9.3,6.8,0,7.4c9.3,0.6,15.5,8.7,15.5,8.7c-8.7-3.7-13.6-0.6-13.6-0.6c7.4,4.3,7.4,8.7,7.4,8.7
		c-4.3-4.3-6.8-3.1-6.8-3.1c3.1,7.4-0.6,13.6-0.6,13.6c1.2-6.2-3.1-13-3.1-13c0,6.2-4.3,8.7-4.3,8.7c1.9-10.5-0.6-10.8-0.6-10.8
		h-0.6V398.4z"/>
	<path class="st6" d="M-55.6,393.9c0,0,0.4-18.2-7.6-23.8s-21.4,1.2-21.4,1.2c4.9-1.2,6.1,0,6.1,0c-7.4,3.7-3.1,12.4-3.1,12.4
		c0.6-3.1,1.8-4.9,1.8-4.9c1.2,8,8.3,6.8-0.9,7.4c-9.2,0.6-15.5,8.7-15.5,8.7c8.7-3.7,13.6-0.6,13.6-0.6C-90,398.6-90,403-90,403
		c4.3-4.3,6.8-3.1,6.8-3.1c-3.1,7.4,0.6,13.6,0.6,13.6c-1.2-6.2,3.1-13,3.1-13c0,6.2,4.3,8.7,4.3,8.7c-1.9-10.5,0.8-10.8,0.8-10.8
		s6.8,32.8,18.8,32.8C-55.6,431.2-55.6,393.9-55.6,393.9z"/>
	<path class="st7" d="M-37.5,398.9c-0.9,18-7.4,32.2-19.5,32.2s-17.6-32.6-17.6-32.6s-2.5,0.2-0.6,10.7c0,0-4.3-2.5-4.3-8.7
		c0,0-4.3,6.8-3.1,13c0,0-3.7-6.2-0.6-13.6c0,0-2.5-1.2-6.8,3.1c0,0,0-4.3,7.4-8.7c0,0-4.9-3.1-13.6,0.6c0,0,6.2-8,15.5-8.7
		c9.3-0.7,2.2,0.6,0.9-7.4c0,0-1.2,1.9-1.9,4.9c0,0-4.3-8.7,3.1-12.4c0,0-1.2-1.2-6.2,0c0,0,13.3-6.7,21.3-1.1
		c8,5.6,6.5,23.6,6.5,23.6h2.5c0,0-0.3-18.7,7.7-24.3c8-5.6,21,1.8,21,1.8c-4.9-1.2-6.2,0-6.2,0c7.4,3.7,3.1,12.4,3.1,12.4
		c-0.6-3.1-1.9-5-1.9-5c-1.2,8-9.3,6.8,0,7.4c9.3,0.6,15.5,8.7,15.5,8.7c-8.7-3.7-13.6-0.6-13.6-0.6c7.4,4.3,7.4,8.7,7.4,8.7
		c-4.3-4.3-6.8-3.1-6.8-3.1c3.1,7.4-0.6,13.6-0.6,13.6c1.2-6.2-3.1-13-3.1-13c0,6.2-4.3,9-4.3,9c1.9-10.5-0.6-10.5-0.6-10.5
		L-37.5,398.9L-37.5,398.9z"/>
	<path class="st8" d="M-60.3,417.8c0,0,4.3-11.6,4.3-20.4c0,0,1.4,14.4,5.1,22.3L-60.3,417.8z"/>
	<path d="M-60.3,417.8c0,0-3.1,0-3.1,2.5s1.2,9,8.4,9c7.1,0,7.7-7.1,7.1-9.6S-60.3,417.8-60.3,417.8z"/>
	<path d="M-75.2,378.8c0,0,1.5,5.6,7.4,5.6c0,0,2.8-0.3,1.5-4C-67.5,376.6-73,377.5-75.2,378.8z"/>
	<path d="M-36.2,378.8c0,0-1.5,5.6-7.4,5.6c0,0-2.8-0.3-1.5-4C-43.9,376.6-38.4,377.5-36.2,378.8z"/>
	<path class="st9" d="M-66.7,376.8c-0.9,0.2-3.4-0.8-4.2-1c-1.9-0.2-3.6,0.1-5.4,0.1c2.1-0.3,4.2-1.8,6.3-2.2c1.4-0.3,6.9,1.1,3.6,3
		C-66.6,376.8-66.7,376.8-66.7,376.8z"/>
	<path class="st9" d="M-45.5,376.8c0.9,0.2,3.4-0.8,4.2-1c1.9-0.2,3.6,0.1,5.4,0.1c-2.1-0.3-4.2-1.8-6.3-2.2c-1.4-0.3-6.9,1.1-3.6,3
		C-45.6,376.8-45.6,376.8-45.5,376.8z"/>
</g>
<g id="freckles">
</g>
</svg>
