<?xml version="1.0" encoding="utf-8"?>
<!-- Generator: Adobe Illustrator 19.1.0, SVG Export Plug-In . SVG Version: 6.00 Build 0)  -->
<!DOCTYPE svg PUBLIC "-//W3C//DTD SVG 1.1//EN" "http://www.w3.org/Graphics/SVG/1.1/DTD/svg11.dtd">
<svg version="1.1" id="Layer_1" xmlns="http://www.w3.org/2000/svg" xmlns:xlink="http://www.w3.org/1999/xlink" x="0px" y="0px"
	 viewBox="-146 306 186 186" style="enable-background:new -146 306 186 186;" xml:space="preserve">
<style type="text/css">
	.st0{fill:#3FC1C0;}
	.st1{fill:#22B573;}
	.st2{fill:#7C281F;}
	.st3{fill:#993325;}
	.st4{fill:#E0C7BA;}
	.st5{fill:#EFD9C5;}
	.st6{fill:#BF4032;}
	.st7{fill:#F9E7D2;}
	.st8{fill:#FFFFFF;}
	.st9{fill:#29ABE2;}
	.st10{fill:none;stroke:#DDC4AF;stroke-width:1.0191;stroke-linecap:round;stroke-miterlimit:10;}
	.st11{fill:#D35046;}
	.st12{fill:#D6817B;}
	.st13{opacity:0.45;}
</style>
<g id="Layer_1_1_">
	<circle class="st0" cx="-53" cy="399" r="93"/>
	<path class="st1" d="M-69.1,466.9c0,0-30,0-39.5,6.5c0,0,18.7,18.7,55.6,18.6c33.4-0.1,53.9-17.1,53.9-17.1s-14-7.5-39-8H-69.1z"/>
	<path class="st2" d="M-84.8,419.6c0,0-9.3,12-2,20s12.7,4.7,12.7,12.7s-3.3,9.3-3.3,9.3s9.3-4,7.3-15.3c-2-11.3-9.3-4.7-12.7-12.7
		c-3.3-8,6-10.7,6-10.7L-84.8,419.6z"/>
	<path class="st2" d="M-34.8,433.9c0,0,10.5,7.5,6.7,11.7c-7.3,8-0.7,6,0.7,11.3c0,0-2.7-2,4-9c6.6-6.9-8-18.7-8-18.7L-34.8,433.9z"
		/>
	<path class="st2" d="M-31.1,438.6c0,0-2,10.7,8.7,15.3c0,0-12.7,2-16.7-9L-31.1,438.6z"/>
	<path class="st2" d="M-10,390.4c0,0,14.1,6.6,11.3,22.7c-4.2,23.5-8.1,18.4-5.8,26.1c1.9,6.4,8,8.1,8,8.1s-10.9,5.3-15.4-7.3
		c-2.4-6.9,2.9-14.8,4.8-25C-5.2,404.8-10,390.4-10,390.4z"/>
	<path class="st3" d="M-8.8,390.2c0,0-10.7,13.3-7.3,27.3c3.3,14,17.3,16.7,17.3,25.3c0,8.7-3.3,12.7-3.3,12.7s10.7-7.3,10.7-18
		s-13.3-9.3-16-23.3s3.3-18.7,3.3-18.7L-8.8,390.2z"/>
	<path class="st3" d="M-20,425.6c0,0,10,8.7,8.7,18s-16.1,12-16.1,12s11.5-10,4.1-19.3C-30.7,426.9-20,425.6-20,425.6z"/>
	<path class="st3" d="M-76.1,429.6c0,0-10,8.7-8.7,18s9.3,10.7,9.3,10.7s-4.7-8.7,2.7-18C-65.4,430.9-76.1,429.6-76.1,429.6z"/>
	<path class="st3" d="M-2.4,361.2c0,0,10,10,7.3,22.7s8,14,6.7,25.3c-1.3,11.3-10.7,11.3-8,19.3s9.3,16,9.3,16s-14.7-9.3-16.7-16.7
		c-2-7.3,8.7-16,8-23.3s-8-10-7.3-16.7C-2.4,381.2-0.4,369.2-2.4,361.2z"/>
	<path class="st2" d="M-24.4,341.2c0,0,15.5-0.3,21.3,16c6.7,18.7,0,29.3,0,40.7s14,14.9,10,28c-2.7,8.7-8,4.7-8,16.7
		c0,0-4-6.7,0.7-16c4-8-6-10.7-12-26.7s6.7-16,2.7-32.7C-13.7,350.5-15.1,350.6-24.4,341.2z"/>
	<polygon class="st4" points="-69.1,438.9 -69.1,466.9 -38.1,466.9 -38.1,436.9 	"/>
	<path class="st2" d="M-96.8,397.6c0,0-11.7,10.3-4.3,25c10.7,21.3,13,15.3,13,23.3c0,6.7-5.3,10-5.3,10s12,2,12.7-11.3
		c0.4-7.3-7-13.3-11.7-22.7C-97.1,412.6-96.8,397.6-96.8,397.6z"/>
	<path class="st5" d="M-53.1,441.9v25h-16c0,0,2.5,12,15.5,12s15.5-12,15.5-12v-30L-53.1,441.9z"/>
	<path class="st2" d="M-110.8,396.2c0,0-6,6-4,17.3s16.7,24,8.7,33.3c-8,9.3-9.3,8-9.3,8s11.3,0.7,16-8.7c4.7-9.3-2.7-19.3-6-28.7
		c-3.3-9.4,7.3-27.3,7.3-27.3L-110.8,396.2z"/>
	<path class="st3" d="M-106.1,364.2c0,0-10,10-7.3,22.7c2.7,12.7-8,14-6.7,25.3c1.3,11.3,10.7,11.3,8,19.3s-9.3,16-9.3,16
		s14.7-9.3,16.7-16.7c2-7.3-8.7-16-8-23.3s8-10,7.3-16.7C-106.1,384.2-108.1,372.2-106.1,364.2z"/>
	<path class="st6" d="M-6.9,364.2c0,0,10,10,7.3,22.7s8,14,6.7,25.3c-1.3,11.3-10.7,11.3-8,19.3s9.3,16,9.3,16s-14.7-9.3-16.7-16.7
		c-2-7.3,8.7-16,8-23.3s-8-10-7.3-16.7C-6.9,384.2-4.9,372.2-6.9,364.2z"/>
	<path class="st2" d="M-84.1,344.2c0,0-15.5-0.3-21.3,16c-6.7,18.7,0,29.3,0,40.7s-14,14.9-10,28c2.7,8.7,8,4.7,8,16.7
		c0,0,4-6.7-0.7-16c-4-8,6-10.7,12-26.7s-6.7-16-2.7-32.7C-94.8,353.5-93.4,353.6-84.1,344.2z"/>
	<path class="st2" d="M-27.8,340.9c0,0,20,4,26,28s-6.7,20-4.7,35.3c2,15.3,10.7,15.3,8,26.7c-2.7,11.3-6.7,12,0,18.7
		c0,0-11.3-6-8.7-16.7c2.7-10.7,4-9.3-2.7-22s3.3-17.3,4-28.7c0.7-11.3-7.3-29.3-24-34L-27.8,340.9z"/>
	<path class="st2" d="M-86.8,458.2c0,0-14.7-6.7-14.7-17.3c0-10.7,8-15.3,6.7-22.7c-1.3-7.3-4.7-10-4.7-20.7l10.7,3.3
		c0,0,6.7,19.3,1.3,28C-92.8,437.6-97.4,440.2-86.8,458.2z"/>
	<path class="st7" d="M-8.8,390.2c0,33.1-24,60-44.7,60c-19.3,0-44.7-26.9-44.7-60c0-33.1,18.9-60,44.7-60S-8.8,357.1-8.8,390.2z"/>
	<path class="st5" d="M-53.1,330.2c0,0-44.7,26.9-44.7,60s24.7,60,44.7,60V329.9"/>
	<path class="st2" d="M-25.7,385.7c0,0-5-4.5-12.2-4.6c-2.7,0-8.8,1.7-8.6,3.4S-36.3,382.2-25.7,385.7z"/>
	<path class="st3" d="M-72.8,353.6c0,0-25.3-4-19.3,7.3c6,11.3,4.7,26-0.7,35.3c-5.3,9.3-12,19.3-6,28c6,8.7,12,15.3,6.7,25.3
		s-14,6.7-14,6.7s6.7,1.3,9.3-10c2.7-11.3-8-12.7-11.3-26c-3.3-13.3,0-20.7,5.3-33.3c5.3-12.7-3.3-12,0.7-26.7
		c6-22.2,22.7-18.7,22.7-18.7s6.7-15.3,33.3-11.3s43.3,28,41.3,52s-8,24-3.3,34.7s-7.3,15.3-7.3,23.3s2.7,11.3,2.7,11.3
		s-8-5.3-6-18.7c2-13.3,6.7-3.3,3.3-18.7s2.7-13.3,2.7-35.3S-54.1,335.6-72.8,353.6z"/>
	<path class="st8" d="M-63.3,396.3c0,0-3.9,3.9-7.4,3.9c-3.4,0-8.3-5.1-8.3-5.1s4.2-2.8,7.7-2.8S-63.3,396.3-63.3,396.3z"/>
	<path class="st6" d="M-74.8,360.9c0,0,11.3-8,18.7,9.3c4.7,11.1,18.7,21.3,28,21.3c0,0-10-6.7-13.3-16.7c0,0,15.3,7.3,20,17.3
		c0,0-4.7-18.7-8-20c0,0,12.7,6.7,13.3,19.3c0.5,9-5,16.2-5.5,24.8c-0.6,10.8,4.4,19,8.9,28.3c1.2,2.4,4.4,15.5-2.1,15.5
		c0,0,8.7,0.3,10.7-11.3c1.3-8-6.7-11.3-8.7-28s7.3-26.7,8-34.7s-2-23.3-10-35.3s-21.3-22-31.3-20.7c-10,1.3-27.3,6.7-31.3,19.3
		c0,0-6.7-5.3-14.7,1.3c-8,6.7-10,14-6,28.7s-7.3,30-7.3,30s15.2-7.9,14.7-18.7C-91.4,376.2-92.1,359.6-74.8,360.9z"/>
	<ellipse class="st9" cx="-70.8" cy="396.3" rx="3.8" ry="3.3"/>
	<path class="st6" d="M-99.4,400.9c0,0-2.7,12,4,20s-2,16.7-2,16.7s10-3.3,9.3-14.7c-0.7-11.3-8.7-8-6-22.7L-99.4,400.9z"/>
	<path class="st2" d="M-74.8,360.9c0,0,6-8,15.3-0.7c0,0-6.7-8.7-13.3-6.7c0,0,2.7-5.3,10.7-5.3c0,0-7.3-2-13.3,3.3
		c0,0,4.7-13.3,22.7-8c0,0-12.7-8.7-24.7,6c0,0-6.7-4.7-13.3,4c0,0,4-3.3,9.3-2c0,0-7.3,1.3-10.7,9.3c0,0,6.7-7.3,13.3-5.3
		c0,0-7.3,0.7-10,7.3C-88.8,362.9-80.8,354.9-74.8,360.9z"/>
	<circle cx="-71.3" cy="397.3" r="2.1"/>
	<path class="st2" d="M-84.4,385.7c0,0,5-4.5,12.2-4.6c2.7,0,8.8,1.7,8.6,3.4S-73.8,382.2-84.4,385.7z"/>
	<path class="st10" d="M-61.6,412.9c-1,0.6-2.1,3.1-1,4c2.1,1.8,2.6-0.1,3.9,0.3c1.5,0.5,0.4,1.9,3.4,2.3c3.5,0.4,2.7-1.1,4-1.7
		c1.6-0.8,1.3,1.3,3.5,0.4c3-1.2,1.3-4.6-0.3-5.5"/>
	<path class="st11" d="M-64.6,429.3c0.1,0.1,0.9,1,1,1.1c1.1,0.8,1.5,1.4,2.7,2.1c1.9,1.1,4.1,2,6.3,2c3.1,0,7.4-1.8,9-4.7
		c-2.8-0.6-4.5,0.2-9.1,0.2c-2.9,0-4.4,0.2-7.2-0.1C-62.5,429.7-64.1,429.6-64.6,429.3z"/>
	<path d="M-71.6,392.3c-1.4-0.4-3.9-0.5-5,0.3l0,0c-1.6-0.1-3.5-1.2-3.5-1.2c0.8,1.8,1.5,2.5,1.5,2.5c-1.5,0.2-4.2-1.5-4.2-1.5
		c2.2,4.4,5,4.1,5.1,4c0.8-1,1.4-2.2,2.5-3C-74.3,392.8-73.5,392.8-71.6,392.3z"/>
	<path class="st12" d="M-68.9,425.9c0,0,5.8,4,9.4,2.7c3.6-1.3,4.8,0.2,4.8,0.2s1.6-1.7,4.9-1.1s7.9,0.9,10.3-2.1
		c0,0-1.8,3.5-9.4,4.9c-1.6,0.3-3.5-0.2-5.6-0.2s-4.3,0.6-5.9,0.4C-67.6,429.3-68.9,425.9-68.9,425.9z"/>
	<path class="st8" d="M-46.2,396.4c0,0,3.3,3.8,6.7,3.8s8.3-5.1,8.3-5.1s-4.5-2.5-7.9-2.5C-42.5,392.6-46.2,396.4-46.2,396.4z"/>
	<ellipse class="st9" cx="-38.8" cy="396.3" rx="3.8" ry="3.3"/>
	<circle cx="-38.9" cy="397.3" r="2.1"/>
	<path d="M-38.8,392.7c1.4-0.1,3.9-0.8,5.2-0.2l0,0c1.6-0.1,3.5-1.2,3.5-1.2c-0.8,1.8-1.5,2.5-1.5,2.5c1.5,0.2,4.2-1.5,4.2-1.5
		c-2.2,4.5-5.1,4-5.1,4c-0.9-1.5-1.7-2.6-3.4-2.9C-36.6,393.4-38.1,393.2-38.8,392.7z"/>
	<path class="st4" d="M-53.1,466.9v12c0,0-12.5,1-16-12H-53.1z"/>
	<path class="st4" d="M-69.1,466.9l-9,0.5c0,0,7.5,13,25,11.5L-69.1,466.9z"/>
	<path class="st5" d="M-38.1,466.9h-15v12c0,0,20.5-1.5,24-11.5L-38.1,466.9z"/>
</g>
<g id="freckles">
	<g class="st13">
		<g>
			<path class="st3" d="M-44.1,404.6c0.5,0,0.5-0.8,0-0.8C-44.6,403.9-44.6,404.6-44.1,404.6L-44.1,404.6z"/>
		</g>
	</g>
	<g class="st13">
		<g>
			<path class="st3" d="M-41.8,407.6c0.5,0,0.5-0.8,0-0.8C-42.3,406.9-42.3,407.6-41.8,407.6L-41.8,407.6z"/>
		</g>
	</g>
	<g class="st13">
		<g>
			<path class="st3" d="M-36.1,405.9c0.5,0,0.5-0.8,0-0.8C-36.6,405.2-36.6,405.9-36.1,405.9L-36.1,405.9z"/>
		</g>
	</g>
	<g class="st13">
		<g>
			<path class="st3" d="M-41.4,404.9c0.5,0,0.5-0.8,0-0.8C-41.9,404.2-41.9,404.9-41.4,404.9L-41.4,404.9z"/>
		</g>
	</g>
	<g class="st13">
		<g>
			<path class="st3" d="M-34.1,411.6c0.5,0,0.5-0.8,0-0.8C-34.6,410.9-34.6,411.6-34.1,411.6L-34.1,411.6z"/>
		</g>
	</g>
	<g class="st13">
		<g>
			<path class="st3" d="M-29.8,405.9c0.5,0,0.5-0.8,0-0.8C-30.3,405.2-30.3,405.9-29.8,405.9L-29.8,405.9z"/>
		</g>
	</g>
	<g class="st13">
		<g>
			<path class="st3" d="M-29.1,410.6c0.5,0,0.5-0.8,0-0.8C-29.6,409.9-29.6,410.6-29.1,410.6L-29.1,410.6z"/>
		</g>
	</g>
	<g class="st13">
		<g>
			<path class="st3" d="M-39.8,412.6c0.5,0,0.5-0.8,0-0.8C-40.3,411.9-40.3,412.6-39.8,412.6L-39.8,412.6z"/>
		</g>
	</g>
	<g class="st13">
		<g>
			<path class="st3" d="M-55.4,410.9c0.5,0,0.5-0.8,0-0.8C-55.9,410.2-55.9,410.9-55.4,410.9L-55.4,410.9z"/>
		</g>
	</g>
	<g class="st13">
		<g>
			<path class="st3" d="M-55.4,405.3c0.5,0,0.5-0.8,0-0.8S-55.9,405.3-55.4,405.3L-55.4,405.3z"/>
		</g>
	</g>
	<g class="st13">
		<g>
			<path class="st3" d="M-51.1,405.9c0.5,0,0.5-0.8,0-0.8C-51.6,405.2-51.6,405.9-51.1,405.9L-51.1,405.9z"/>
		</g>
	</g>
	<g class="st13">
		<g>
			<path class="st3" d="M-51.8,411.6c0.5,0,0.5-0.8,0-0.8C-52.3,410.9-52.3,411.6-51.8,411.6L-51.8,411.6z"/>
		</g>
	</g>
	<g class="st13">
		<g>
			<path class="st3" d="M-55.8,416.3c0.5,0,0.5-0.8,0-0.8S-56.3,416.3-55.8,416.3L-55.8,416.3z"/>
		</g>
	</g>
	<g class="st13">
		<g>
			<path class="st3" d="M-58.8,411.3c0.5,0,0.5-0.8,0-0.8S-59.3,411.3-58.8,411.3L-58.8,411.3z"/>
		</g>
	</g>
	<g class="st13">
		<g>
			<path class="st3" d="M-53.8,398.9c0.5,0,0.5-0.8,0-0.8C-54.3,398.2-54.3,398.9-53.8,398.9L-53.8,398.9z"/>
		</g>
	</g>
	<g class="st13">
		<g>
			<path class="st3" d="M-66.8,405.6c0.5,0,0.5-0.8,0-0.8C-67.3,404.9-67.3,405.6-66.8,405.6L-66.8,405.6z"/>
		</g>
	</g>
	<g class="st13">
		<g>
			<path class="st3" d="M-74.1,405.6c0.5,0,0.5-0.8,0-0.8C-74.6,404.9-74.6,405.6-74.1,405.6L-74.1,405.6z"/>
		</g>
	</g>
	<g class="st13">
		<g>
			<path class="st3" d="M-81.1,404.6c0.5,0,0.5-0.8,0-0.8C-81.6,403.9-81.6,404.6-81.1,404.6L-81.1,404.6z"/>
		</g>
	</g>
	<g class="st13">
		<g>
			<path class="st3" d="M-80.1,410.6c0.5,0,0.5-0.8,0-0.8C-80.6,409.9-80.6,410.6-80.1,410.6L-80.1,410.6z"/>
		</g>
	</g>
	<g class="st13">
		<g>
			<path class="st3" d="M-74.4,410.9c0.5,0,0.5-0.8,0-0.8C-74.9,410.2-74.9,410.9-74.4,410.9L-74.4,410.9z"/>
		</g>
	</g>
	<g class="st13">
		<g>
			<path class="st3" d="M-77.1,415.6c0.5,0,0.5-0.8,0-0.8C-77.6,414.9-77.6,415.6-77.1,415.6L-77.1,415.6z"/>
		</g>
	</g>
	<g class="st13">
		<g>
			<path class="st3" d="M-68.1,410.9c0.5,0,0.5-0.8,0-0.8C-68.6,410.2-68.6,410.9-68.1,410.9L-68.1,410.9z"/>
		</g>
	</g>
	<g class="st13">
		<g>
			<path class="st3" d="M-76.8,408.9c0.5,0,0.5-0.8,0-0.8C-77.3,408.2-77.3,408.9-76.8,408.9L-76.8,408.9z"/>
		</g>
	</g>
	<g class="st13">
		<g>
			<path class="st3" d="M-70.8,408.9c0.5,0,0.5-0.8,0-0.8C-71.3,408.2-71.3,408.9-70.8,408.9L-70.8,408.9z"/>
		</g>
	</g>
	<g class="st13">
		<g>
			<path class="st3" d="M-63.4,404.6c0.5,0,0.5-0.8,0-0.8C-63.9,403.9-63.9,404.6-63.4,404.6L-63.4,404.6z"/>
		</g>
	</g>
</g>
</svg>
